<svg width="24" height="24" viewBox="0 0 24 24" fill="none" xmlns="http://www.w3.org/2000/svg">
<path fill-rule="evenodd" clip-rule="evenodd" d="M8.50023 11C10.4321 11 12.0002 9.43071 12.0002 7.5C12.0002 5.56808 10.4309 4 8.50023 4C6.73826 4 5.27893 5.30534 5.03581 6.99968H2.5C1.83333 6.99968 1.83333 7.99968 2.5 7.99968H5.0357C5.2786 9.69521 6.73905 11 8.50023 11ZM5.0357 7.99968H5.5C6.16667 7.99968 6.16667 6.99968 5.5 6.99968H5.03581C5.01236 7.16311 5.00022 7.33016 5.00022 7.5C5.00022 7.66964 5.01232 7.83647 5.0357 7.99968ZM8.50066 4.99989C9.87925 4.99989 11.0007 6.12043 11.0007 7.4999C11.0007 8.87849 9.88012 9.9999 8.50066 9.9999C7.12207 9.9999 6.00066 8.87936 6.00066 7.4999C6.00066 6.1213 7.1212 4.99989 8.50066 4.99989ZM13.4994 6.99968H21.4994C22.166 6.99968 22.166 7.99968 21.4994 7.99968H13.4994C12.8327 7.99968 12.8327 6.99968 13.4994 6.99968ZM12.9994 16.5C12.9994 17.8786 14.1199 19 15.4994 19C16.878 19 17.9994 17.8795 17.9994 16.5C17.9994 15.1214 16.8788 14 15.4994 14C14.1208 14 12.9994 15.1206 12.9994 16.5ZM15.5 13.0001C13.5693 13.0001 12 14.5682 12 16.5001C12 18.4308 13.5681 20.0001 15.5 20.0001C17.261 20.0001 18.7213 18.6956 18.9645 17.0003H21.4994C22.166 17.0003 22.166 16.0003 21.4994 16.0003H18.9645C18.7216 14.3057 17.2622 13.0001 15.5 13.0001ZM18.9645 16.0003H18.4994C17.8327 16.0003 17.8327 17.0003 18.4994 17.0003H18.9645C18.9879 16.837 19 16.6699 19 16.5001C19 16.3305 18.9879 16.1636 18.9645 16.0003ZM10.5 17.0003H2.5C1.83333 17.0003 1.83333 16.0003 2.5 16.0003H10.5C11.1667 16.0003 11.1667 17.0003 10.5 17.0003Z" fill="#292F48"/>
</svg>
