<?xml version="1.0" encoding="utf-8"?>
<!-- Generator: Adobe Illustrator 27.5.0, SVG Export Plug-In . SVG Version: 6.00 Build 0)  -->
<svg version="1.1" xmlns="http://www.w3.org/2000/svg" xmlns:xlink="http://www.w3.org/1999/xlink" x="0px" y="0px"
	 viewBox="0 0 750 500" style="enable-background:new 0 0 750 500;" xml:space="preserve">
<g id="BACKGROUND">
	<rect style="fill:#FFFFFF;" width="750" height="500"/>
	<g>
		<path style="fill:#FFF6ED;" d="M649.925,462.828c17.261-28.627,23.914-63.746,17.234-96.561
			c-3.919-19.251-12.094-37.801-12.568-57.441c-0.588-24.41,10.789-47.677,12.071-72.06c1.839-34.992-18.479-69.227-48.044-88.034
			c-29.565-18.807-67.006-23.087-101.269-15.747c-29.085,6.231-55.845,20.163-83.721,30.542
			c-27.876,10.379-58.719,17.222-87.216,8.699c-28.86-8.632-51.073-31.664-78.345-44.457
			c-51.111-23.976-115.699-7.078-155.412,33.048c-39.713,40.126-56.286,99.278-53.098,155.643
			c2.901,51.281,20.694,100.595,44.293,146.368H649.925z"/>
		<path style="fill:#FFF6ED;" d="M622.57,130.702c7.841,7.379,14.838,15.823,23.906,21.626c9.068,5.804,21.111,8.552,30.59,3.447
			c11.577-6.235,14.979-21.782,12.295-34.654c-3.412-16.362-14.56-30.598-28.787-39.369c-14.228-8.771-31.288-12.345-47.994-11.845
			c-9.283,0.277-18.811,1.869-26.671,6.816c-11.774,7.409-16.947,20.007-3.844,27.933
			C596.23,113.222,610.237,119.095,622.57,130.702z"/>
	</g>
</g>
<g id="OBJECTS">
	<g>
		<g>
			<g>
				<path style="fill:#F5E1D0;" d="M554.193,393.01c-1.149-9.218-5.981-17.981-5.245-27.241
					c1.388-17.458,21.655-29.128,22.487-46.622c0.715-15.021-13.419-27.904-12.183-42.891c0.843-10.22,8.824-19.998,5.658-29.752
					c-2.432-7.49-12.057-11.645-19.175-8.276c-6.066,2.871-9.218,9.622-11.053,16.078c-1.835,6.455-2.932,13.347-6.815,18.82
					c-4.171,5.88-10.976,9.288-15.98,14.478c-6.189,6.419-9.357,15.636-8.423,24.504c0.908,8.618,5.449,16.878,4.404,25.48
					c-0.882,7.26-5.58,13.375-9.525,19.533c-6.158,9.612-10.865,20.397-11.881,31.767c-1.016,11.37,1.975,23.382,9.601,31.877
					c16.144,17.984,45.038,11.748,54.954-9.186C553.742,405.83,554.983,399.348,554.193,393.01z"/>
				<g>
					<path style="fill:#F5DBC4;" d="M552.499,244.784l-4.851,21.983c-1.634,7.322-3.241,14.649-4.821,21.982
						c-3.157,14.665-6.324,29.326-9.219,44.041c-3.053,14.683-5.74,29.435-8.244,44.214l-1.789,11.099l-1.506,11.139
						c-0.487,3.715-0.81,7.446-1.224,11.174l-0.147,1.399l-0.073,1.402l-0.14,2.806l-0.315,5.62
						c-0.297-15.03,1.534-30.025,3.674-44.875c0.466-3.73,1.132-7.425,1.732-11.132c0.601-3.707,1.223-7.411,1.912-11.101
						l2.02-11.081l2.141-11.057c3.062-14.7,6.203-29.382,9.684-43.986c1.764-7.296,3.535-14.59,5.367-21.868
						C548.604,259.28,550.45,252.006,552.499,244.784z"/>
				</g>
			</g>
			<g>
				<path style="fill:#F5DBC4;" d="M499.528,255.312c0,0-51.446,108.609,16.546,176.767
					C516.074,432.079,541.921,345.886,499.528,255.312z"/>
				<g>
					<path style="fill:#F5E1D0;" d="M499.752,269.179c0.825,6.331,1.523,12.675,2.287,19.012l2.079,19.032
						c1.366,12.69,2.552,25.396,3.837,38.094c1.124,12.712,2.333,25.417,3.376,38.137l1.524,19.084
						c0.435,6.368,0.939,12.73,1.314,19.104c-0.827-6.331-1.524-12.675-2.29-19.012l-2.08-19.031
						c-1.36-12.69-2.554-25.396-3.833-38.094c-1.118-12.713-2.335-25.417-3.372-38.137l-1.525-19.084
						C500.632,281.915,500.128,275.553,499.752,269.179z"/>
				</g>
			</g>
		</g>
		<g>
			<g>
				<path style="fill:#F5E1D0;" d="M258.94,316.252c-1.082-9.226,1.522-18.888-1.401-27.706
					c-5.51-16.624-27.975-23.126-32.954-39.916c-4.275-14.417,6.379-30.299,1.606-44.559c-3.255-9.724-13.338-17.318-12.588-27.545
					c0.576-7.854,8.933-14.184,16.65-12.609c6.575,1.342,11.246,7.147,14.567,12.979c3.321,5.832,6.029,12.263,11.105,16.653
					c5.452,4.716,12.874,6.403,18.971,10.251c7.541,4.759,12.815,12.954,14.022,21.789c1.173,8.586-1.268,17.691,1.798,25.796
					c2.588,6.84,8.608,11.659,13.907,16.699c8.272,7.867,15.414,17.218,19.112,28.019c3.697,10.8,3.656,23.179-1.725,33.247
					c-11.391,21.314-40.938,22.147-55.559,4.181C262.435,328.595,259.684,322.595,258.94,316.252z"/>
				<g>
					<path style="fill:#F5DBC4;" d="M223.106,174.613c10.148,11.316,18.623,24.035,26.468,37.042
						c7.805,13.056,14.598,26.688,20.902,40.525c2.901,7.029,5.987,13.982,8.552,21.142c1.315,3.566,2.73,7.096,3.964,10.69
						c1.218,3.6,2.403,7.211,3.574,10.826l1.757,5.421l1.561,5.481L293,316.7c0.535,1.822,0.951,3.676,1.386,5.524l1.306,5.544
						c0.879,3.693,1.734,7.391,2.571,11.091c-2.141-7.287-4.004-14.639-6.206-21.893l-3.381-10.855l-1.688-5.426l-1.883-5.362
						c-1.267-3.57-2.521-7.144-3.742-10.728c-1.258-3.571-2.695-7.077-4.034-10.618c-2.609-7.112-5.746-14.009-8.68-20.987
						c-6.125-13.847-12.911-27.398-20.397-40.561c-1.883-3.284-3.738-6.587-5.762-9.787l-2.978-4.838l-3.112-4.752
						C232.26,186.707,227.891,180.503,223.106,174.613z"/>
				</g>
			</g>
			<g>
				<path style="fill:#F5DBC4;" d="M279.2,169.492c0,0,75.856,93.212,26.075,175.615C305.275,345.107,259.624,267.561,279.2,169.492
					z"/>
				<g>
					<path style="fill:#F5E1D0;" d="M283.021,183.921c1.649,6.353,3.114,12.751,4.592,19.146c1.425,6.406,2.78,12.828,4.11,19.256
						c2.63,12.862,4.904,25.795,7.051,38.75c2,12.977,3.817,25.993,5.044,39.076l0.46,4.905l0.352,4.916
						c0.215,3.278,0.512,6.549,0.594,9.836c0.241,6.57,0.359,13.125,0.373,19.69c-0.803-13.108-1.699-26.177-3.309-39.184
						c-0.776-6.505-1.617-13.003-2.509-19.493l-1.435-9.724l-1.544-9.708c-1.979-12.958-4.279-25.866-6.582-38.775
						c-1.146-6.456-2.335-12.905-3.561-19.348C285.504,196.806,284.23,190.373,283.021,183.921z"/>
				</g>
			</g>
		</g>
	</g>
	<g>
		<g>
			<g>
				<g>
					<g>
						<path style="fill:#F2AE96;" d="M663.539,337.753c-0.029-4.337-0.062-8.647-0.102-12.896
							c-11.834,1.391-23.721,2.251-35.675,2.615l0.436,3.919c1.037,9.326,3.929,18.351,8.507,26.543l26.944,48.218l19.935,32.68
							l17.885-10.77c0,0-0.05-0.11-0.14-0.33C699.609,423.563,681.839,380.643,663.539,337.753z"/>
					</g>
					<g>
						<path style="fill:#6B393A;" d="M677.271,430.599c0,0-1.195-7.034,11.447-6.342l9.492-5.259c0,0,7.104,11.466,9.941,19.108
							c0.366,0.984-0.029,2.087-0.948,2.596l-38.282,21.21c-0.91,0.504-2.047,0.269-2.689-0.55
							c-1.093-1.395-2.095-3.744,0.461-6.263c4.059-4,15.68-17.006,15.68-17.006L677.271,430.599z"/>
						<g>
							<g>
								<path style="fill:#4D1B1C;" d="M672.414,449.972c1.478-0.488,2.946-0.99,4.383-1.57c1.446-0.552,2.874-1.148,4.26-1.821
									c1.382-0.68,2.753-1.378,4.032-2.212c1.28-0.822,2.516-1.728,3.518-2.832c1.02-1.074,1.814-2.373,2.005-3.789
									c0.149-1.455,0.128-3.046,0.073-4.565c-0.07-1.535-0.244-3.068-0.528-4.583c-0.266-1.519-0.649-3.022-1.202-4.476
									c1.471,2.762,2.167,5.887,2.496,9.002c0.167,1.578,0.203,3.107,0.098,4.745c-0.199,1.688-1.121,3.174-2.211,4.346
									c-2.248,2.344-5.094,3.852-7.971,5.063C678.474,448.48,675.476,449.396,672.414,449.972z"/>
							</g>
						</g>
					</g>
				</g>
				<g>
					<g>
						<path style="fill:#F2AE96;" d="M586.069,327.37c5.716,55.918,14.767,122.602,14.767,122.602l19.836-1.5l1.417-120.84
							C610.071,327.895,598.048,328.005,586.069,327.37z"/>
					</g>
					<g>
						<path style="fill:#6B393A;" d="M597.923,438.833c0,0,2.363-6.732,13.087,0h10.851c0,0,0.657,13.472-0.565,21.532
							c-0.157,1.038-1.037,1.812-2.087,1.812h-43.765c-1.04,0-1.921-0.757-2.085-1.784c-0.28-1.749-0.018-4.29,3.439-5.254
							c5.489-1.532,21.958-7.277,21.958-7.277L597.923,438.833z"/>
						<g>
							<g>
								<path style="fill:#4D1B1C;" d="M583.608,453.447c1.53,0.286,3.058,0.553,4.597,0.739c1.533,0.215,3.071,0.381,4.61,0.46
									c1.538,0.071,3.076,0.121,4.599,0.008c1.518-0.103,3.038-0.3,4.448-0.784c1.411-0.448,2.734-1.204,3.584-2.352
									c0.832-1.203,1.581-2.607,2.266-3.963c0.679-1.379,1.266-2.805,1.748-4.269c0.5-1.459,0.889-2.96,1.107-4.501
									c-0.044,3.129-0.942,6.202-2.155,9.09c-0.615,1.463-1.321,2.819-2.203,4.204c-0.988,1.383-2.512,2.239-4.033,2.74
									c-3.1,0.969-6.32,0.917-9.424,0.59C589.637,455.063,586.569,454.42,583.608,453.447z"/>
							</g>
						</g>
					</g>
				</g>
			</g>
			<g>
				<path style="fill:#6B393A;" d="M666.202,331.639c-6.89,5.07-18.39,7.71-30.6,9c-0.73,0.08-1.47,0.15-2.2,0.22
					c-23.38,2.15-48.5-0.4-48.5-0.4s-1.48-12.73-3.03-28.6c0,0,0,0-0.01,0c-0.04-0.47-0.09-0.94-0.13-1.42
					c-1.37-14.16-2.77-30.55-3.21-42.57c-0.02-0.44-0.04-0.88-0.05-1.3c-0.07-2.08-0.11-4-0.11-5.75c0-17.6,6.24-30.13,9.36-35.3
					c0.19-0.31,0.36-0.59,0.52-0.85c0.75-1.16,1.21-1.77,1.21-1.77l66.78,1.98c3.08,6.55,5.26,23.83,6.79,42.64
					c0.03,0.36,0.06,0.72,0.08,1.09c1.24,15.53,2.03,31.98,2.5,44.18c0.01,0.36,0.03,0.72,0.04,1.07
					C666.042,324.499,666.202,331.639,666.202,331.639z"/>
				<g>
					<g>
						<g>
							<path style="fill:#4D1B1C;" d="M651.319,230.829c1.209,8.489,2.236,17.001,3.209,25.52c0.972,8.519,1.81,17.052,2.618,25.588
								c0.728,8.543,1.454,17.089,1.95,25.651c0.494,8.561,0.896,17.133,0.858,25.71l-0.316-6.422l-0.398-6.415
								c-0.271-4.276-0.557-8.55-0.91-12.82c-0.654-8.543-1.372-17.082-2.178-25.613c-0.724-8.539-1.577-17.066-2.385-25.599
								L651.319,230.829z"/>
						</g>
						<g>
							<path style="fill:#4D1B1C;" d="M612.425,260.738c2.624,3.094,5.342,6.036,8.323,8.714c2.964,2.698,6.163,5.107,9.502,7.41
								c-3.73-1.613-7.142-3.945-10.173-6.669C617.066,267.449,614.405,264.287,612.425,260.738z"/>
						</g>
						<g>
							<path style="fill:#4D1B1C;" d="M610.148,264.327c1.213,3.148,2.584,6.217,4.179,9.162c1.605,2.938,3.378,5.78,5.368,8.466
								c1.971,2.699,4.155,5.239,6.483,7.645l1.783,1.771l1.855,1.699l1.901,1.656c0.659,0.521,1.311,1.053,1.961,1.594
								c-0.711-0.452-1.419-0.912-2.121-1.383l-2.053-1.49l-1.965-1.608l-1.898-1.69c-2.486-2.308-4.729-4.875-6.749-7.603
								c-2.001-2.742-3.783-5.648-5.245-8.709C612.174,270.783,610.968,267.602,610.148,264.327z"/>
						</g>
					</g>
				</g>
				<g style="opacity:0.5;">
					<g>
						<g>
							<path style="fill:#6B393A;" d="M663.102,268.609c-27.36-9.89-52.98-24.52-75.38-43.09c0.19-0.31,0.36-0.59,0.52-0.85
								c22.23,18.44,47.65,32.98,74.78,42.85C663.052,267.879,663.082,268.239,663.102,268.609z"/>
						</g>
						<g>
							<path style="fill:#6B393A;" d="M665.642,313.859c-31.46-10.07-61-25.65-87.12-45.99c-0.02-0.44-0.04-0.88-0.05-1.3
								c26.1,20.45,55.64,36.1,87.13,46.22C665.612,313.149,665.632,313.509,665.642,313.859z"/>
						</g>
						<g>
							<path style="fill:#6B393A;" d="M635.602,340.639c-0.73,0.08-1.47,0.15-2.2,0.22c-5.8-2.26-11.54-4.69-17.15-7.36
								c-13.27-6.32-24.77-13.56-34.38-21.64c0,0,0,0-0.01,0c-0.04-0.47-0.09-0.94-0.13-1.42c9.69,8.28,21.39,15.71,34.95,22.16
								C622.862,335.539,629.192,338.19,635.602,340.639z"/>
						</g>
					</g>
				</g>
			</g>
		</g>
		<g>
			<g>
				<g>
					<path style="fill:#F2AE96;" d="M562.923,163.835c-1.57-3.653-2.988-7.353-4.308-11.089c-2.859,1.272-5.797,2.571-8.788,3.887
						c-28.9-1.99-59.58-4.5-69.83-5.35c-1.074-1.266-2.183-2.336-3.271-3.27c-2.023,0.237-4.111,0.252-6.119,0.043
						c0.249,0.425,0.374,0.825,0.3,1.157c-0.129,0.571-2.32,0.202-4.95-0.327c-0.269,0.939-0.493,1.878-0.637,2.795
						c-0.018,0.116-0.049,0.227-0.078,0.339c0.053,0.02,0.092,0.034,0.115,0.042c-0.026-0.004-0.066-0.01-0.12-0.019
						c-0.296,1.11-1.102,1.982-2.111,2.548c0.079,0.285,0.164,0.567,0.255,0.846c0.644,0.206,1.066,0.334,1.066,0.334
						s-0.37-0.017-0.966-0.036c0.69,2.02,1.636,3.939,2.538,6.107c2.99-0.202,6.086-0.599,8.489-0.961
						c10.73,5.94,22.17,10.4,33.7,13.75c10.055,2.92,26.066,5.537,36.282,7.042c6.452,0.95,13.033,0.061,19.023-2.519
						c1.923-0.828,3.799-1.66,5.629-2.489C566.868,172.49,564.801,168.202,562.923,163.835z"/>
					<path style="fill:#F06D55;" d="M604.232,127.859c0,0-21.435,10.386-26.031,13.109c-4.596,2.723-25.702,13.841-25.702,13.841
						l13.447,24.456l27.574-11.915L604.232,127.859z"/>
				</g>
				<g>
					<g>
						<path style="fill:#242A4B;" d="M444.397,178.245c0,0,26.295-2.681,53.4,0c0,0-15.646,12.641-23.919,12.544
							C465.605,190.692,446.359,184.373,444.397,178.245z"/>
						<g>
							<path style="fill:none;stroke:#3D1525;stroke-width:1.2202;stroke-miterlimit:10;" d="M500.675,186.826l-5.468-6.976
								c-5.815-7.419-14.718-11.753-24.144-11.753l0,0c-9.426,0-18.329,4.334-24.144,11.753l-5.468,6.976"/>
							<path style="fill:none;stroke:#3D1525;stroke-width:1.2202;stroke-miterlimit:10;" d="M466.819,154.271
								c0-2.344,1.9-4.245,4.245-4.245s4.245,1.9,4.245,4.245c0,2.344-1.9,4.245-4.245,4.245v9.581"/>
						</g>
						<g>
							<path style="fill:#476765;" d="M524.342,207.109l-15.6,15.03l-8.99-6.28v48c-18.61,4.9-38.31,4.94-56.94,0.11l-0.43-0.11v-48
								l-9,6.28l-15.59-15.03l7.73-8.38l0.73-0.8l12.01-13.02l0.74-0.8l5.4-5.86c0,0,19.18,9.89,26.66,10.29
								c7.48-0.4,26.72-10.28,26.74-10.29l8.89,9.67l0.78,0.84l14.36,15.62l0.84,0.91L524.342,207.109z"/>
							<g>
								<g>
									<g>
										<path style="fill:#2C403F;" d="M442.378,215.862c0.481-0.925,1.161-1.617,1.886-2.253c0.746-0.613,1.54-1.17,2.532-1.491
											c-0.48,0.927-1.159,1.618-1.886,2.254C444.163,214.982,443.37,215.539,442.378,215.862z"/>
									</g>
									<g>
										<path style="fill:#2C403F;" d="M495.733,211.436c0.961,0.473,1.696,1.151,2.378,1.877
											c0.659,0.747,1.262,1.545,1.638,2.549c-0.963-0.471-1.698-1.149-2.378-1.877
											C496.714,213.236,496.11,212.439,495.733,211.436z"/>
									</g>
									<g>
										<path style="fill:#2C403F;" d="M469.097,219.139c2.072,2.202,4.369,4.038,6.838,5.683
											c2.451,1.666,5.059,3.127,7.547,4.853c-2.844-1.02-5.572-2.338-8.105-4.024
											C472.875,223.956,470.538,221.822,469.097,219.139z"/>
									</g>
									<g>
										<path style="fill:#2C403F;" d="M467.915,221.43c0.866,2.148,1.864,4.217,3.012,6.198c1.157,1.975,2.409,3.891,3.767,5.735
											c1.34,1.858,2.784,3.644,4.221,5.443l2.188,2.679c0.711,0.912,1.455,1.796,2.151,2.724
											c-0.863-0.775-1.679-1.594-2.515-2.395c-0.811-0.824-1.613-1.66-2.406-2.505c-1.585-1.692-3.068-3.484-4.448-5.358
											c-1.36-1.888-2.618-3.862-3.635-5.963C469.225,225.897,468.388,223.703,467.915,221.43z"/>
									</g>
								</g>
							</g>
							<g style="opacity:0.5;">
								<g>
									<g>
										<path style="fill:#476765;" d="M507.472,188.76c-9.08,2.16-18.5,3.23-27.94,3.23c-14.1,0-28.23-2.38-41.27-7.08l0.74-0.8
											c21.32,7.59,45.53,8.96,67.69,3.81L507.472,188.76z"/>
									</g>
									<g>
										<path style="fill:#476765;" d="M522.672,205.289c-10.81,1.41-21.79,2.3-32.69,2.63c-2.92,0.1-5.77,0.14-8.55,0.14
											c-22.61,0-40.66-3.01-55.91-9.33l0.73-0.8c16.91,6.95,37.33,9.81,63.69,9c10.63-0.33,21.33-1.19,31.89-2.55
											L522.672,205.289z"/>
									</g>
									<g>
										<path style="fill:#476765;" d="M499.752,234.82v1.01c-9.17,1.58-18.51,2.36-27.85,2.36c-9.91,0-19.82-0.88-29.52-2.65
											v-1.03C461.232,237.969,480.852,238.07,499.752,234.82z"/>
									</g>
									<g>
										<path style="fill:#476765;" d="M499.752,256.639v1.01c-4.24,0.26-8.48,0.39-12.73,0.39c-15.01,0-30.04-1.57-44.64-4.69
											v-1.03C461.112,256.339,480.552,257.809,499.752,256.639z"/>
									</g>
								</g>
							</g>
						</g>
					</g>
					<g>
						<path style="fill:#F2AE96;" d="M480.358,150.373c0,0-7.01-5.128-8.58-5.798c-1.57-0.67-5.138,6.079-4.409,7.263
							c0.729,1.184,5.207-1.648,5.207-1.648s0.076,3.639,3.103,4.435C478.707,155.42,481.065,153.592,480.358,150.373z"/>
						<path style="fill:#F2AE96;" d="M462.768,160.34c0.272-0.072-2.212-2.27-0.545-4.042c0,0-0.921-2.841,0.481-4.253
							c0.044-0.044,0.09-0.087,0.139-0.128c0,0,0.151-4.028,4.336-2.698c0,0,3.045,2.045,1.847,3.303
							c-0.504,0.53-1.394,0.589-2.255,0.482c1.393,0.44,2.884,1.079,2.801,1.787c-0.135,1.138-3.544,1.23-4.454,1.234
							c0.93,0.01,4.47,0.133,4.657,1.435c0.025,0.17-0.044,0.325-0.167,0.47c1.18-0.159,2.112-0.112,2.26,0.395
							c0.451,1.544-6.015,4.506-7.162,4.265C463.558,162.348,462.496,160.411,462.768,160.34z"/>
					</g>
				</g>
			</g>
			<g>
				<path style="fill:#F2AE96;" d="M694.871,269.921l0.049-0.007c1.676-33.723-9.252-67.406-20.098-92.478
					c-3.05,1.836-6.1,3.673-9.199,5.426c-4.501,2.546-9.005,5.247-13.693,7.51c14.754,34.668,32.536,78.879,33.306,80.795
					c-2.268,5.302-2.419,10.046-2.456,12.453c-0.029,1.852,0.984,2.41,1.701,2.573c0.365,0.083,0.682-0.164,0.712-0.532
					c0.143-1.753,0.994-5.042,2.242-5.358c1.409-0.357,3.366,13.265,5.362,13.343c0.802,0.031-0.329-9.7-0.329-9.7
					s3.183,10.226,4.276,9.375c1.093-0.851-0.543-10.201-0.543-10.201s4.399,9.841,5.134,8.516c0.736-1.325-1.58-9.397-1.58-9.397
					c1.991,3.419,3.287,4.54,4.003,4.891c0.34,0.167,0.679-0.083,0.612-0.452C703.543,282.174,697.498,273.52,694.871,269.921z"/>
				<path style="fill:#F06D55;" d="M632.132,127.179c0,0,19.091,4.087,23.176,7.321c4.085,3.234,25.021,50.213,25.021,50.213
					l-25.702,15.66l-20.425-46.468L632.132,127.179z"/>
			</g>
			<g>
				<g>
					<path style="fill:#F2AE96;" d="M620.811,141.801c7.687-1.363,13.777-6.76,19.877-11.795c-0.456-0.058-0.915-0.099-1.375-0.115
						c-3.068-0.108-5.552-0.757-7.565-1.68c-3.32-10.353-0.087-29.892,0.338-32.382c0.02-0.09,0.03-0.17,0.05-0.26l-26.8,15.07
						c0.45,0.75,0.7,1.77,0.81,2.95v0.01c0.24,2.39-0.1,5.43-0.58,8.2c-0.55,3.135-1.283,5.909-1.587,7.006
						c-1.7,2.051-3.832,3.322-6.517,4.771C604.304,138.887,611.936,143.375,620.811,141.801z"/>
					<path style="fill:#EB9C81;" d="M605.566,121.799c14.57,1.84,21.95-15.56,22.22-16.21c-2.69,4.27-6.59,6.43-10.4,7.46
						c-4.69,1.28-9.24,0.85-11.15,0.57c-0.03-0.01-0.06-0.01-0.09-0.02C606.386,115.989,606.046,119.029,605.566,121.799z"/>
				</g>
				<g>
					<path style="fill:#F06D55;" d="M588.412,193.559l1.87,13.55c0,0-2,7.654-4.126,16.646c13.737,3.839,27.513,7.308,41.888,8.165
						c10.903,0.65,21.432-0.534,31.911-2.522c-3.167-11.136-6.583-21.179-6.583-21.179l1.08-46.66l-1.87-27.84l-20.45-6.54
						c0,0-6.61,8.85-15.46,10.21c-8.84,1.37-12.44-9.53-12.44-9.53l-23.16,12.43l3.83,27.81L588.412,193.559z"/>
					<polygon style="fill:#F9D6B0;" points="630.252,168.099 630.252,193.559 588.412,193.559 584.902,168.099 					"/>
					<g>
						<g>
							<g>
								<path style="fill:#87392B;" d="M653.607,198.053c-1.51-2.924-2.92-5.891-4.315-8.865c-1.405-2.97-2.738-5.971-4.071-8.972
									c-1.311-3.011-2.621-6.023-3.859-9.066l-1.855-4.566c-0.585-1.537-1.201-3.059-1.758-4.608
									c0.765,1.458,1.47,2.941,2.207,4.411l2.11,4.454c1.405,2.97,2.738,5.971,4.07,8.973c1.31,3.012,2.62,6.023,3.858,9.066
									C651.241,191.918,652.474,194.964,653.607,198.053z"/>
							</g>
							<g>
								<path style="fill:#87392B;" d="M584.902,171.075c-0.925-0.827-1.262-2.13-1.392-3.342c-0.09-1.24,0.063-2.482,0.332-3.683
									c0.576-2.435,1.739-4.596,2.854-6.747c1.166-2.129,2.41-4.207,3.751-6.221c1.334-2.019,2.715-4.005,4.223-5.901
									l-1.767,3.166l-1.8,3.138c-1.181,2.1-2.394,4.179-3.528,6.294c-0.577,1.051-1.137,2.113-1.648,3.189
									c-0.54,1.07-0.985,2.158-1.345,3.276c-0.346,1.128-0.572,2.296-0.586,3.471
									C583.969,168.878,584.161,170.109,584.902,171.075z"/>
							</g>
							<g>
								<path style="fill:#87392B;" d="M608.95,194.336c1.719,3.583,3.767,6.93,6.267,9.936c2.482,3.021,5.383,5.662,8.576,8.027
									c-3.611-1.688-6.785-4.307-9.347-7.391C611.903,201.81,609.93,198.2,608.95,194.336z"/>
							</g>
							<g>
								<path style="fill:#87392B;" d="M607.112,197.167c0.53,2.245,1.138,4.453,1.902,6.602c0.775,2.144,1.647,4.248,2.681,6.273
									c1.013,2.036,2.184,3.989,3.447,5.887l0.976,1.406l1.033,1.369l1.059,1.356c0.375,0.434,0.741,0.877,1.104,1.328
									c-0.892-0.734-1.714-1.546-2.535-2.365l-1.156-1.297l-1.103-1.346c-1.435-1.827-2.66-3.816-3.716-5.888
									c-1.035-2.082-1.905-4.251-2.518-6.491C607.661,201.764,607.235,199.474,607.112,197.167z"/>
							</g>
							<g>
								<path style="fill:#87392B;" d="M601.045,131.018c0.754,1.768,1.589,3.501,2.66,5.074c1.041,1.585,2.292,3.037,3.777,4.175
									c1.489,1.122,3.171,2.005,4.974,2.423c1.8,0.431,3.68,0.354,5.42-0.246c1.759-0.561,3.394-1.537,4.986-2.579
									c1.601-1.038,3.134-2.174,4.658-3.325c1.52-1.158,2.981-2.393,4.394-3.684c1.438-1.267,2.787-2.63,4.134-4.004
									c-1.176,1.523-2.461,2.962-3.793,4.357c-1.355,1.373-2.773,2.686-4.252,3.931c-1.467,1.261-3.04,2.392-4.636,3.483
									c-1.598,1.079-3.277,2.134-5.18,2.771c-1.905,0.628-4.015,0.68-5.943,0.179c-1.933-0.495-3.741-1.426-5.241-2.71
									C603.965,138.292,602.143,134.679,601.045,131.018z"/>
							</g>
						</g>
					</g>
				</g>
			</g>
		</g>
		<g>
			<g>
				<path style="fill:#F2AE96;" d="M591.758,99.061c0,0.33,0.01,0.66,0.01,0.99c0.01,1.43,0.06,2.88,0.53,4.23
					c1.83,5.17,9.2,8.36,14.18,9.39c6.4,1.33,12.84-0.34,17.86-4.52c3.99-3.31,6.57-7.98,7.67-13.04c1.14,0.1,2.75-0.17,3.12-0.31
					c1.44-0.55,2.79-1.74,3.62-3.03c1-1.54,1.38-3.52,0.82-5.27c-0.7-2.21-3.05-3.97-5.39-3.39c-0.16,0.04-0.41,0.14-0.68,0.28
					c0.31-7.69-0.82-16.11-6.16-20.75c-11.5-10-28-6.5-31.5,2.5c-2.72,6.99-3.69,15.11-3.98,23.02
					C591.728,92.531,591.718,95.871,591.758,99.061z"/>
				<g>
					<g>
						<path style="fill:#EB9C81;" d="M591.758,99.061c0.42,0.11,0.86,0.17,1.31,0.17c2.82,0,5.11-2.29,5.11-5.11
							c0-2.82-2.29-5.11-5.11-5.11c-0.42,0-0.82,0.05-1.21,0.15C591.728,92.531,591.718,95.871,591.758,99.061z"/>
						<path style="fill:#EB9C81;" d="M623.623,94.12c0,2.824-2.289,5.113-5.113,5.113c-2.824,0-5.113-2.289-5.113-5.113
							c0-2.824,2.289-5.113,5.113-5.113C621.334,89.007,623.623,91.297,623.623,94.12z"/>
					</g>
					<g>
						<g>
							<path style="fill:#3D1525;" d="M600.869,84.2c0,1.669-0.661,3.023-1.477,3.023s-1.477-1.353-1.477-3.023
								c0-1.67,0.661-3.023,1.477-3.023S600.869,82.53,600.869,84.2z"/>
							<path style="fill:#3D1525;" d="M596.378,80.22c0.25,0.49,0.577,0.916,0.999,1.29c0.417,0.373,0.949,0.662,1.545,0.799
								l0.025,0.006c0.294,0.068,0.587-0.116,0.655-0.41c0.068-0.294-0.116-0.587-0.41-0.655c-0.047-0.011-0.097-0.015-0.144-0.013
								c-0.826,0.033-1.743-0.47-2.368-1.199l-0.011-0.012c-0.064-0.074-0.175-0.082-0.249-0.019
								C596.357,80.061,596.342,80.15,596.378,80.22z"/>
						</g>
						<g>
							<path style="fill:#3D1525;" d="M610.704,84.2c0,1.669,0.661,3.023,1.477,3.023c0.815,0,1.477-1.353,1.477-3.023
								c0-1.67-0.661-3.023-1.477-3.023C611.365,81.177,610.704,82.53,610.704,84.2z"/>
							<path style="fill:#3D1525;" d="M614.893,80.038c-0.626,0.729-1.542,1.232-2.368,1.199c-0.302-0.012-0.556,0.223-0.568,0.524
								c-0.012,0.302,0.223,0.556,0.524,0.568c0.049,0.002,0.096-0.003,0.141-0.013l0.028-0.006
								c0.596-0.137,1.128-0.427,1.545-0.799c0.422-0.374,0.749-0.8,0.999-1.29c0.044-0.087,0.01-0.193-0.077-0.237
								c-0.074-0.038-0.162-0.018-0.214,0.042L614.893,80.038z"/>
						</g>
					</g>
					<g>
						<path style="fill:#3D1525;" d="M600.243,93.345c0.512,0.997,1.291,1.857,2.226,2.531c0.933,0.674,2.101,1.107,3.305,1.097
							c1.196-0.03,2.37-0.437,3.29-1.135c0.482-0.316,0.859-0.757,1.275-1.134c0.348-0.447,0.687-0.895,0.992-1.358
							c-0.456,0.334-0.872,0.689-1.29,1.034c-0.465,0.282-0.88,0.63-1.351,0.866c-0.917,0.525-1.92,0.813-2.92,0.83
							c-1.005,0.024-2.006-0.294-2.931-0.792C601.917,94.773,601.049,94.113,600.243,93.345z"/>
						<path style="fill:#3D1525;" d="M604.231,98.704c0.421,0.374,0.998,0.509,1.555,0.527c0.558-0.018,1.127-0.169,1.556-0.527
							c-0.546,0.087-1.042,0.194-1.556,0.174C605.272,98.899,604.769,98.81,604.231,98.704z"/>
					</g>
					<g>
						<path style="fill:#3D1525;" d="M609.477,73.715c0.689-0.611,1.469-0.811,2.288-0.847c0.812-0.019,1.646,0.077,2.437,0.346
							c0.797,0.243,1.532,0.692,2.146,1.229c0.64,0.518,1.09,1.203,1.465,1.878c0.189,0.341,0.067,0.771-0.275,0.961
							c-0.273,0.152-0.603,0.103-0.821-0.097l-0.06-0.055c-0.481-0.443-0.942-0.857-1.458-1.158
							c-0.496-0.334-1.053-0.517-1.61-0.661c-0.562-0.13-1.147-0.2-1.744-0.169c-0.589,0.02-1.217,0.05-1.865-0.108l-0.187-0.045
							c-0.397-0.097-0.64-0.498-0.543-0.895C609.286,73.941,609.368,73.812,609.477,73.715z"/>
						<path style="fill:#3D1525;" d="M602.096,73.715c-0.689-0.611-1.469-0.811-2.288-0.847c-0.812-0.019-1.647,0.077-2.437,0.346
							c-0.797,0.243-1.532,0.692-2.146,1.229c-0.64,0.518-1.09,1.203-1.464,1.878c-0.19,0.341-0.067,0.771,0.275,0.961
							c0.273,0.152,0.603,0.103,0.821-0.097l0.06-0.055c0.481-0.443,0.942-0.857,1.458-1.158c0.496-0.334,1.053-0.517,1.61-0.661
							c0.562-0.13,1.147-0.2,1.744-0.169c0.589,0.02,1.217,0.05,1.864-0.108l0.187-0.045c0.397-0.097,0.64-0.498,0.543-0.895
							C602.287,73.941,602.205,73.812,602.096,73.715z"/>
					</g>
					<path style="fill:#3D1525;" d="M605.444,79.581c-0.261,1.139-0.453,2.27-0.664,3.391c-0.219,1.117-0.424,2.232-0.742,3.291
						c-0.073,0.266-0.156,0.528-0.25,0.78c-0.077,0.207-0.262,0.604-0.257,0.976c-0.039,0.755,0.444,1.494,1.06,1.793
						c0.629,0.353,1.355,0.298,1.927,0.103c0.581-0.21,1.088-0.525,1.526-0.913c-1.06,0.398-2.298,0.709-3.044,0.146
						c-0.375-0.285-0.577-0.664-0.524-1.078c0.019-0.212,0.086-0.347,0.221-0.671c0.114-0.283,0.214-0.568,0.299-0.854
						c0.323-1.152,0.49-2.314,0.555-3.478C605.62,81.903,605.596,80.74,605.444,79.581z"/>
					<path style="fill:#3D1525;" d="M637.719,89.131c0.017-0.694-0.175-1.463-0.787-2c-0.651-0.533-1.577-0.484-2.281-0.22
						c-0.747,0.259-1.359,0.77-1.841,1.343c-0.494,0.58-0.852,1.208-1.145,1.931c-0.104,0.258,0.02,0.552,0.278,0.656
						c0.195,0.079,0.409,0.027,0.548-0.113l0.033-0.034c0.491-0.499,1.109-1.032,1.692-1.197c0.292-0.076,0.509-0.067,0.711,0.078
						c0.209,0.148,0.37,0.461,0.508,0.784c0.258,0.663,0.413,1.438-0.153,1.745c-0.593,0.337-1.462,0.256-2.237,0.153
						c0.732,0.321,1.54,0.591,2.458,0.33c0.466-0.151,0.837-0.681,0.868-1.159c0.045-0.478-0.024-0.913-0.143-1.338
						c-0.126-0.42-0.302-0.867-0.715-1.235c-0.419-0.376-1.078-0.464-1.547-0.319c-0.956,0.288-1.602,0.84-2.203,1.483l0.86,0.509
						c0.463-1.158,1.223-2.362,2.321-2.905c0.549-0.262,1.199-0.396,1.719-0.104C637.206,87.8,637.534,88.467,637.719,89.131z"/>
				</g>
			</g>
			<path style="fill:#B06E53;" d="M652.842,97.939c-1.97-7.3-7.01-13.32-11.92-19.08c-1.862-2.195-3.141-4.908-4.844-7.163
				c-0.364-2.646-1.091-5.146-2.596-7.407c-1.83-2.74-4.39-4.93-7.21-6.65c-4.94-3-10.81-4.57-16.56-3.99
				c-5.75,0.59-11.32,3.43-14.82,8.03c-2.406,3.163-3.744,7.152-3.718,11.108c0.001,0.191-0.004,0.389-0.016,0.592
				c-0.007,0.123-0.001,0.244,0,0.367c-0.078,0.486-0.131,0.979-0.126,1.484c0.08,6.56-1.54,13.14-4.7,18.88
				c-3.12,5.68-7.79,10.86-8.48,17.3c-0.71,6.76,3.84,13.71,10.32,15.76c3.04,0.97,6.31,0.93,9.39,1.76
				c0.96,0.25,1.89,0.6,2.78,1.02l3.89-2.09c0.36-1.38,0.9-3.61,1.33-6.06c0.48-2.77,0.82-5.81,0.58-8.2v-0.01
				c-4.97-1.09-12.05-4.26-13.84-9.31c-0.47-1.35-0.52-2.8-0.53-4.23c0-0.33-0.01-0.66-0.01-0.99c-0.04-3.19-0.03-6.53,0.1-9.9
				c0.128-3.49,0.397-7.02,0.883-10.479c0.003,0.008,0.007,0.017,0.01,0.025c0.077-0.545,0.152-1.09,0.237-1.632
				c0.014-0.087,0.03-0.174,0.044-0.262c1.031,0.652,2.49,0.705,3.767,0.589c7.645-0.695,15.3-4.249,20.608-9.795
				c-0.559,2.969,0.275,6.104,1.934,8.629c1.659,2.525,4.089,4.477,6.749,5.911c0.381,0.206,0.771,0.405,1.159,0.609
				c1.66,2.882,2.339,6.339,1.774,9.621c2.169-0.964,3.934-2.763,5.009-4.88c0.554-1.091,0.899-2.281,1.041-3.496
				c0.265-0.002,0.527,0.028,0.785,0.078c0.104,0.021,0.204,0.058,0.306,0.086c0.158,0.044,0.315,0.088,0.468,0.149
				c0.108,0.044,0.211,0.098,0.316,0.15c0.139,0.069,0.278,0.141,0.411,0.223c0.1,0.062,0.197,0.13,0.293,0.2
				c0.128,0.093,0.252,0.191,0.372,0.296c0.087,0.076,0.173,0.154,0.255,0.236c0.117,0.117,0.227,0.242,0.332,0.37
				c0.07,0.084,0.142,0.167,0.206,0.255c0.108,0.148,0.203,0.305,0.296,0.464c0.046,0.079,0.098,0.154,0.14,0.236
				c0.125,0.244,0.234,0.497,0.317,0.757c0.56,1.75,0.18,3.73-0.82,5.27c-0.83,1.29-2.18,2.48-3.62,3.03
				c-0.37,0.14-1.96,0.41-3.1,0.31c-0.56,3.37-3.42,21.59-0.4,31.7c0.33-0.4,0.5-0.63,0.5-0.63l13.4,4.29
				c2.47-4.69,4.81-9.46,6.37-14.52C653.802,110.809,654.512,104.149,652.842,97.939z"/>
		</g>
	</g>
	<g>
		<g>
			<g>
				<g>
					<path style="fill:#DA8C70;" d="M371.513,357.546c-0.567,0.003-1.135,0.007-1.702,0.01l10.856,90.177l19.999,1.5
						c0,0,1.208-44.66,1.449-91.53C391.924,357.738,381.722,357.499,371.513,357.546z"/>
				</g>
				<path style="fill:#242A4B;" d="M378.942,448.134l-0.851-15.83h19.83c0,0,2.213-5.106,4.596-5.106s4.255,2.553,4.426,3.66
					c0.17,1.106-2.468,16.085-2.468,16.085s19.319,9.106,23.149,9.191c1.149,0.025,1.838,0.579,2.24,1.343
					c1.127,2.139-0.627,4.7-3.046,4.7h-45.969c-1.686,0-3.095-1.256-3.313-2.928C377.165,456.387,377.042,451.919,378.942,448.134z"
					/>
			</g>
			<g>
				<g>
					<path style="fill:#DA8C70;" d="M314.596,353.422c0.186,48.394,1.469,95.811,1.469,95.811l19.999-1.5l10.867-90.271
						C336.042,357.138,325.207,356.146,314.596,353.422z"/>
				</g>
				<path style="fill:#242A4B;" d="M337.946,448.134l0.851-15.83h-19.83c0,0-2.213-5.106-4.596-5.106
					c-2.383,0-4.255,2.553-4.426,3.66c-0.17,1.106,2.468,16.085,2.468,16.085s-19.319,9.106-23.149,9.191
					c-1.149,0.025-1.838,0.579-2.241,1.343c-1.127,2.139,0.627,4.7,3.046,4.7h45.969c1.686,0,3.096-1.256,3.313-2.928
					C339.723,456.387,339.846,451.919,337.946,448.134z"/>
			</g>
			<g>
				<path style="fill:#242A4B;" d="M328.1,216.224c0,0-11.489,33.957-12.894,42.255c-1.404,8.298-2.426,105.567-2.426,105.567
					h35.106l10.165-95.482l11.281,95.482h33.958c0,0,2.553-78.758-2.553-107.354c-5.106-28.596-12.818-39.447-12.818-39.447
					L328.1,216.224z"/>
				<g>
					<g>
						<g>
							<path style="fill:#4C558A;" d="M349.036,269.33c3.258-0.732,6.546-1.162,9.842-1.518c3.299-0.326,6.606-0.577,9.945-0.524
								c-3.257,0.734-6.546,1.164-9.842,1.518C355.682,269.13,352.375,269.381,349.036,269.33z"/>
						</g>
						<g>
							<path style="fill:#4C558A;" d="M369.973,314.777c-0.741-3.862-1.377-7.754-1.997-11.652
								c-0.622-3.897-1.157-7.815-1.74-11.723c-0.503-3.923-1.049-7.838-1.512-11.767l-0.674-5.893
								c-0.189-1.969-0.411-3.933-0.569-5.904c0.383,1.94,0.702,3.888,1.054,5.831l0.949,5.841
								c0.619,3.895,1.155,7.802,1.734,11.702c0.499,3.915,1.047,7.821,1.507,11.746
								C369.185,306.885,369.632,310.816,369.973,314.777z"/>
						</g>
						<g>
							<path style="fill:#4C558A;" d="M348.015,316.17c0.22-3.926,0.55-7.84,0.896-11.752c0.344-3.912,0.777-7.815,1.161-11.723
								c0.464-3.899,0.886-7.803,1.391-11.698l0.777-5.84c0.295-1.943,0.557-3.889,0.882-5.828c-0.1,1.964-0.265,3.921-0.395,5.882
								l-0.5,5.87c-0.346,3.912-0.776,7.815-1.162,11.723c-0.467,3.899-0.885,7.803-1.393,11.697
								C349.167,308.397,348.646,312.289,348.015,316.17z"/>
						</g>
						<g>
							<path style="fill:#4C558A;" d="M334.53,221.659c0.339,3.184,0.273,6.406-0.062,9.603c-0.343,3.196-1.037,6.379-2.245,9.399
								c-1.249,2.97-3.036,5.896-5.781,7.775c-1.351,0.937-2.875,1.605-4.457,1.98c-1.598,0.328-3.224,0.348-4.812,0.182
								c1.598-0.059,3.186-0.182,4.689-0.656c1.499-0.457,2.904-1.17,4.123-2.125c2.467-1.898,4.123-4.658,5.313-7.534
								c1.188-2.903,1.895-6.001,2.411-9.123c0.254-1.564,0.434-3.143,0.56-4.728C334.423,224.848,334.492,223.257,334.53,221.659z"
								/>
						</g>
						<g>
							<path style="fill:#4C558A;" d="M381.014,221.659c0.038,1.598,0.107,3.19,0.261,4.774c0.127,1.585,0.307,3.164,0.56,4.728
								c0.517,3.122,1.224,6.22,2.411,9.123c1.19,2.876,2.845,5.635,5.313,7.534c1.219,0.955,2.624,1.668,4.123,2.125
								c1.503,0.475,3.091,0.597,4.689,0.656c-1.588,0.167-3.214,0.146-4.812-0.182c-1.582-0.375-3.106-1.043-4.457-1.98
								c-2.745-1.878-4.532-4.804-5.781-7.775c-1.208-3.021-1.902-6.203-2.245-9.399
								C380.741,228.065,380.675,224.842,381.014,221.659z"/>
						</g>
					</g>
				</g>
			</g>
		</g>
		<g>
			<g>
				<g>
					<path style="fill:#E29579;" d="M340.077,136.174c4.204,4.767,9.35,8.091,15.762,8.54c4.826,0.338,11.275,0.109,15.236-3.115
						c3.687-3.001,4.808-8.768,5.423-13.994c-0.921-0.149-1.786-0.344-2.582-0.591c-1.469-1.702-2.627-3.962-3.564-7.344
						c-0.352-2.367-0.559-4.816-0.358-6.812v-0.01c0.11-1.18,0.36-2.2,0.81-2.95l-11.689-5.975l-12.312,3.938
						c0.31,0.518,0.64,2.127,0.853,3.466c0.155,2.149,0.099,5.762-0.193,8.393c-0.935,3.352-2.088,5.6-3.549,7.293
						c-1.587,0.492-3.407,0.818-5.5,0.891c-0.978,0.034-1.944,0.185-2.889,0.407C336.241,131.32,338.031,133.854,340.077,136.174z"
						/>
					<path style="fill:#C97A5D;" d="M347.613,110.822c0,0,7.958,5.603,22.647,0.436C370.26,111.258,358.777,127.97,347.613,110.822z
						"/>
				</g>
				<path style="fill:#E29579;" d="M332.962,178.567c-2.8,7.62-5.83,16.03-8.88,24.57c-1.93,5.41-3.86,10.87-5.74,16.23
					c-1.6-0.61-3.19-1.25-4.77-1.92c-10.5-4.4-15.94-16.07-12.5-26.92c0.5-1.58,1.01-3.14,1.52-4.67c1.9-5.67,3.87-11.01,5.82-15.96
					C312.772,172.747,323.322,178.877,332.962,178.567z"/>
				<path style="fill:#E29579;" d="M404.262,217.447c-1.58,0.67-3.17,1.31-4.78,1.92c-1.88-5.36-3.81-10.82-5.74-16.23
					c-3.04-8.54-6.07-16.94-8.89-24.57h0.06c9.61,0.31,20.13-5.78,24.51-8.64c1.95,4.93,3.92,10.27,5.81,15.93
					c0.52,1.53,1.03,3.09,1.53,4.67C420.202,201.377,414.762,213.047,404.262,217.447z"/>
				<g>
					<path style="fill:#F2E8E2;" d="M395.012,135.287c-7.41-9.87-21.05-8.27-21.05-8.27l0,0c-0.026-0.001-0.047-0.002-0.047-0.002
						s-6.645,12.869-15.666,12.358c-9.021-0.511-14.337-12.358-14.337-12.358c-0.004,0-0.007,0.001-0.011,0.001
						c-0.222-0.025-13.691-1.518-21.04,8.271c-7.4,9.87-16.51,33.19-16.51,33.19s0.75,0.56,2.06,1.42
						c3.462,2.263,10.827,6.583,18.539,8.116v41.354c33.362,11.739,64.17,0,64.17,0s0.858-23.841,1.585-41.756
						c7.017-1.779,13.511-5.591,16.716-7.684c0.01-0.01,0.03-0.02,0.04-0.03c1.31-0.86,2.06-1.42,2.06-1.42
						S402.412,145.157,395.012,135.287z"/>
					<g>
						<g>
							<g>
								<path style="fill:#BAA79C;" d="M338.576,167.436c0.413-2.356,1.115-4.609,1.884-6.839c0.799-2.22,1.668-4.414,2.827-6.507
									c-0.411,2.356-1.113,4.61-1.884,6.839C340.602,163.148,339.733,165.343,338.576,167.436z"/>
							</g>
							<g>
								<path style="fill:#BAA79C;" d="M374.802,155.202c1.083,1.799,1.879,3.704,2.608,5.633c0.699,1.94,1.329,3.906,1.67,5.979
									c-1.085-1.798-1.881-3.703-2.607-5.633C375.775,159.24,375.145,157.274,374.802,155.202z"/>
							</g>
							<g>
								<path style="fill:#BAA79C;" d="M341.517,127.414c0.927,1.821,1.825,3.656,2.901,5.378c1.048,1.734,2.239,3.38,3.669,4.783
									c1.43,1.393,3.04,2.614,4.863,3.376c1.814,0.763,3.804,1.074,5.772,0.938c3.971-0.182,7.753-2.011,10.747-4.656
									c1.513-1.32,2.86-2.841,4.052-4.479c1.229-1.616,2.269-3.371,3.277-5.149c-1.618,3.742-3.788,7.331-6.811,10.197
									c-2.996,2.862-6.987,4.814-11.208,5.084c-2.105,0.115-4.252-0.25-6.189-1.101c-1.932-0.857-3.65-2.14-5.052-3.677
									c-1.419-1.527-2.568-3.267-3.542-5.075C343.048,131.207,342.238,129.327,341.517,127.414z"/>
							</g>
						</g>
					</g>
				</g>
			</g>
			<g>
				<g>
					<rect x="316.567" y="185.857" style="fill:#B06E53;" width="80.342" height="50.798"/>
					<g>
						<g>
							<path style="fill:#F8D8B1;" d="M328.147,177.718c0,0,33.176-1.928,58.661-0.062c0,0,3.655-3.624-0.686-8.156
								c-4.341-4.532-52.92-2.815-56.617-0.702C325.483,171.096,326.47,173.233,328.147,177.718z"/>
							<g>
								<g>
									<path style="fill:#E0A965;" d="M330.781,172.82c4.743-0.206,9.487-0.303,14.23-0.383c4.743-0.082,9.487-0.075,14.23-0.117
										c4.743,0.039,9.487,0.035,14.23,0.115l7.115,0.139c1.221-0.024,2.49,0.443,3.353,1.309c0.886,0.845,1.361,2.09,1.225,3.277
										c0.024-1.194-0.532-2.337-1.405-3.082c-0.877-0.762-2.024-1.105-3.173-1.013l-7.115,0.139
										c-4.743,0.08-9.487,0.076-14.23,0.115c-4.743-0.042-9.487-0.034-14.23-0.117
										C340.268,173.122,335.525,173.026,330.781,172.82z"/>
								</g>
							</g>
						</g>
						<g>
							<path style="fill:#F06D55;" d="M320.37,185.857c0,0-5.01-3.846,0-6.824c5.01-2.979,68.843-2.837,71.348-0.454
								c2.505,2.383,3.802,6.614,1.638,7.279C391.192,186.522,320.37,185.857,320.37,185.857z"/>
							<g>
								<g>
									<path style="fill:#87392B;" d="M387.59,182.649c-5.57,0.206-11.14,0.303-16.71,0.383c-5.57,0.082-11.14,0.075-16.71,0.117
										c-5.57-0.039-11.14-0.035-16.71-0.115l-8.355-0.14l-2.089-0.056c-0.686,0.008-1.42-0.101-2.048,0.019
										c-0.643,0.146-1.221,0.591-1.534,1.186c-0.327,0.589-0.337,1.355,0.015,1.963c-0.395-0.578-0.454-1.374-0.15-2.029
										c0.298-0.655,0.895-1.173,1.603-1.376c0.356-0.107,0.733-0.102,1.071-0.113l1.044-0.028l2.089-0.056l8.355-0.14
										c5.57-0.08,11.14-0.076,16.71-0.115c5.57,0.042,11.14,0.034,16.71,0.117C376.45,182.346,382.02,182.443,387.59,182.649z"/>
								</g>
							</g>
						</g>
					</g>
				</g>
				<g>
					<g>
						<path style="fill:#E29579;" d="M359.762,229.767c-0.2,0.78-9.21-3.07-9.21-3.07s8.9,5.96,7.77,6.76
							c-1.13,0.81-9.62-3.42-9.62-3.42s8.18,7.02,6.7,7.35c-1.48,0.32-8.56-4.19-8.56-4.19c2.733,2.905,3.432,4.467,3.553,5.25
							c0.052,0.34-0.304,0.587-0.61,0.431c-4.08-2.067-10.662-10.331-13.363-13.872l-0.02,0.04c-6.16-1.5-12.19-3.42-18.06-5.68
							c-1.603-0.615-3.194-1.254-4.772-1.916c-10.499-4.404-15.939-16.069-12.5-26.923c0.5-1.579,1.009-3.137,1.523-4.671
							c7.9,6.38,15.34,12.35,21.49,17.28c9.27,7.42,15.63,12.47,16.28,12.99c5.73-0.67,10.32,0.54,12.64,1.19
							c1.78,0.5,2.03,1.63,1.98,2.36c-0.02,0.37-0.35,0.61-0.71,0.53c-1.72-0.36-5.12-0.48-5.78,0.62
							C347.752,222.077,360.252,227.837,359.762,229.767z"/>
						<g>
							<path style="fill:#C97A5D;" d="M311.888,191.841c1.065,0.608,1.9,1.419,2.682,2.277c0.758,0.879,1.461,1.807,1.933,2.939
								c-1.066-0.606-1.902-1.417-2.682-2.277C313.064,193.899,312.361,192.971,311.888,191.841z"/>
						</g>
					</g>
					<g>
						<path style="fill:#E29579;" d="M358.067,229.767c0.2,0.78,9.21-3.07,9.21-3.07s-8.9,5.96-7.77,6.76
							c1.13,0.81,9.62-3.42,9.62-3.42s-8.18,7.02-6.7,7.35c1.48,0.32,8.56-4.19,8.56-4.19c-2.734,2.905-3.432,4.467-3.553,5.25
							c-0.052,0.34,0.304,0.587,0.61,0.431c4.08-2.067,10.662-10.331,13.363-13.872l0.02,0.04c6.16-1.5,12.19-3.42,18.06-5.68
							c1.603-0.615,3.194-1.254,4.772-1.916c10.499-4.404,15.939-16.069,12.5-26.923c-0.5-1.579-1.009-3.137-1.523-4.671
							c-7.9,6.38-15.34,12.35-21.49,17.28c-9.27,7.42-15.63,12.47-16.28,12.99c-5.73-0.67-10.32,0.54-12.64,1.19
							c-1.78,0.5-2.03,1.63-1.98,2.36c0.02,0.37,0.35,0.61,0.71,0.53c1.72-0.36,5.12-0.48,5.78,0.62
							C370.077,222.077,357.577,227.837,358.067,229.767z"/>
						<g>
							<path style="fill:#C97A5D;" d="M396.909,200.601c0.87-1.63,1.973-3.063,3.13-4.449c1.181-1.366,2.419-2.683,3.891-3.801
								c-0.868,1.632-1.971,3.064-3.13,4.449C399.617,198.164,398.38,199.482,396.909,200.601z"/>
						</g>
					</g>
				</g>
			</g>
		</g>
		<g>
			<g>
				<path style="fill:#E29579;" d="M385.317,86.758c-0.698-2.192-3.033-3.948-5.365-3.386c1.045-30.546-24.427-26.415-24.427-26.415
					c-15.973,1.386-17.796,18.361-17.678,27.009c-0.517-0.301-1.001-0.523-1.271-0.591c-2.341-0.584-4.693,1.181-5.394,3.382
					c-0.558,1.753-0.18,3.734,0.82,5.278c0.832,1.283,2.183,2.479,3.626,3.029c0.329,0.125,1.686,0.357,2.787,0.327
					c2.471,19.952,20.55,17.988,20.55,17.988c15.674,0.776,19.744-10.171,20.658-18.075c0.582-0.072,1.067-0.172,1.246-0.241
					c1.443-0.55,2.794-1.746,3.626-3.029C385.498,90.492,385.875,88.51,385.317,86.758z"/>
				<g>
					<g>
						<g>
							<path style="fill:#3D1525;" d="M363.884,84.46c0,1.67,0.661,3.023,1.477,3.023c0.816,0,1.477-1.353,1.477-3.023
								c0-1.669-0.661-3.023-1.477-3.023C364.545,81.437,363.884,82.791,363.884,84.46z"/>
						</g>
						<g>
							<path style="fill:#3D1525;" d="M354.049,84.46c0,1.67-0.661,3.023-1.477,3.023c-0.815,0-1.477-1.353-1.477-3.023
								c0-1.669,0.661-3.023,1.477-3.023C353.388,81.437,354.049,82.791,354.049,84.46z"/>
						</g>
					</g>
					<g>
						<path style="fill:#3D1525;" d="M364.51,93.605c-0.512,0.997-1.291,1.857-2.226,2.531c-0.933,0.674-2.101,1.107-3.305,1.097
							c-1.196-0.03-2.37-0.437-3.29-1.135c-0.482-0.316-0.859-0.757-1.275-1.134c-0.348-0.447-0.687-0.895-0.991-1.358
							c0.456,0.334,0.872,0.689,1.29,1.034c0.465,0.282,0.88,0.63,1.35,0.866c0.917,0.525,1.92,0.813,2.92,0.83
							c1.005,0.024,2.006-0.294,2.931-0.792C362.836,95.034,363.704,94.374,364.51,93.605z"/>
						<path style="fill:#3D1525;" d="M360.521,98.965c-0.421,0.374-0.998,0.509-1.554,0.527c-0.559-0.018-1.127-0.169-1.556-0.527
							c0.546,0.087,1.042,0.194,1.556,0.175C359.481,99.16,359.984,99.07,360.521,98.965z"/>
					</g>
					<g>
						<path style="fill:#3D1525;" d="M355.276,73.976c-0.689-0.611-1.469-0.811-2.288-0.847c-0.812-0.019-1.646,0.077-2.437,0.346
							c-0.797,0.243-1.532,0.691-2.146,1.229c-0.64,0.518-1.09,1.203-1.465,1.878c-0.189,0.341-0.066,0.771,0.275,0.961
							c0.273,0.152,0.603,0.103,0.821-0.097l0.06-0.055c0.481-0.442,0.942-0.857,1.458-1.158c0.496-0.334,1.053-0.517,1.61-0.661
							c0.562-0.13,1.147-0.2,1.744-0.169c0.589,0.02,1.217,0.05,1.865-0.108l0.187-0.046c0.397-0.097,0.64-0.498,0.543-0.895
							C355.467,74.201,355.385,74.072,355.276,73.976z"/>
						<path style="fill:#3D1525;" d="M362.657,73.976c0.689-0.611,1.469-0.811,2.288-0.847c0.812-0.019,1.646,0.077,2.437,0.346
							c0.797,0.243,1.532,0.691,2.146,1.229c0.64,0.518,1.09,1.203,1.465,1.878c0.19,0.341,0.066,0.771-0.275,0.961
							c-0.273,0.152-0.603,0.103-0.821-0.097l-0.06-0.055c-0.481-0.442-0.942-0.857-1.458-1.158
							c-0.496-0.334-1.053-0.517-1.61-0.661c-0.561-0.13-1.147-0.2-1.744-0.169c-0.589,0.02-1.217,0.05-1.864-0.108l-0.187-0.046
							c-0.397-0.097-0.64-0.498-0.543-0.895C362.466,74.201,362.548,74.072,362.657,73.976z"/>
					</g>
					<path style="fill:#3D1525;" d="M359.309,79.842c0.261,1.139,0.453,2.27,0.664,3.391c0.219,1.117,0.424,2.233,0.742,3.291
						c0.073,0.266,0.156,0.528,0.25,0.78c0.077,0.207,0.262,0.604,0.257,0.976c0.039,0.755-0.444,1.494-1.06,1.793
						c-0.629,0.353-1.355,0.298-1.927,0.103c-0.581-0.21-1.088-0.525-1.526-0.913c1.06,0.398,2.298,0.709,3.044,0.146
						c0.375-0.285,0.577-0.664,0.524-1.078c-0.019-0.212-0.086-0.347-0.221-0.671c-0.114-0.283-0.214-0.567-0.299-0.854
						c-0.323-1.152-0.49-2.314-0.555-3.478C359.133,82.164,359.157,81,359.309,79.842z"/>
					<path style="fill:#3D1525;" d="M333.034,88.392c-0.017-0.694,0.175-1.463,0.787-2.001c0.651-0.533,1.577-0.484,2.281-0.22
						c0.747,0.259,1.359,0.77,1.841,1.343c0.494,0.579,0.852,1.208,1.145,1.93c0.104,0.258-0.02,0.552-0.278,0.656
						c-0.195,0.079-0.409,0.027-0.548-0.113l-0.033-0.034c-0.491-0.499-1.109-1.032-1.692-1.197
						c-0.292-0.076-0.509-0.067-0.711,0.078c-0.21,0.148-0.37,0.461-0.508,0.784c-0.258,0.663-0.413,1.438,0.153,1.745
						c0.593,0.337,1.462,0.256,2.237,0.153c-0.732,0.321-1.54,0.591-2.458,0.33c-0.466-0.151-0.837-0.681-0.868-1.159
						c-0.045-0.478,0.024-0.913,0.143-1.338c0.126-0.42,0.302-0.867,0.715-1.235c0.419-0.376,1.078-0.464,1.547-0.319
						c0.956,0.288,1.602,0.841,2.203,1.483l-0.86,0.509c-0.463-1.158-1.223-2.362-2.321-2.904c-0.549-0.263-1.199-0.396-1.719-0.104
						C333.547,87.061,333.219,87.727,333.034,88.392z"/>
					<path style="fill:#3D1525;" d="M384.124,88.392c0.017-0.694-0.175-1.463-0.787-2.001c-0.651-0.533-1.577-0.484-2.28-0.22
						c-0.747,0.259-1.359,0.77-1.841,1.343c-0.494,0.579-0.852,1.208-1.144,1.93c-0.104,0.258,0.02,0.552,0.278,0.656
						c0.195,0.079,0.409,0.027,0.548-0.113l0.033-0.034c0.491-0.499,1.109-1.032,1.692-1.197c0.292-0.076,0.509-0.067,0.711,0.078
						c0.209,0.148,0.37,0.461,0.508,0.784c0.258,0.663,0.413,1.438-0.153,1.745c-0.593,0.337-1.462,0.256-2.237,0.153
						c0.732,0.321,1.54,0.591,2.458,0.33c0.466-0.151,0.837-0.681,0.868-1.159c0.045-0.478-0.024-0.913-0.143-1.338
						c-0.126-0.42-0.302-0.867-0.715-1.235c-0.419-0.376-1.078-0.464-1.547-0.319c-0.957,0.288-1.602,0.841-2.203,1.483l0.86,0.509
						c0.463-1.158,1.223-2.362,2.321-2.904c0.549-0.263,1.199-0.396,1.719-0.104C383.611,87.061,383.94,87.727,384.124,88.392z"/>
				</g>
			</g>
			<path style="fill:#3D1525;" d="M383.283,64.587c-4.43-7.8-13.13-12.98-22.09-13.17c-3.28-0.07-6.53,0.48-9.73,1.18
				c-1.99,0.43-3.98,0.94-5.78,1.88c-1.8,0.94-3.25,2.16-4.07,4.02c-4.89,2.75-8.37,7.88-9.11,13.45
				c-0.52,3.92,0.33,7.98,2.28,11.42c0.58-0.13,1.18-0.14,1.79,0.01c0.228,0.059,0.615,0.229,1.037,0.46
				c0.931,0.915,1.72,2.139,2.363,3.11c0.551-1.03,1.671-3.017,2.223-4.047c7.881-2.03,14.684-8.528,16.844-16.375
				c-0.328,1.872,0.765,3.691,1.988,5.145c3.791,4.506,9.359,7.474,15.213,8.109c0.26,1.137,0.227,2.398,0.163,3.563
				c-0.034,0.615-0.109,1.255,0.114,1.829c0.223,0.574,0.872,1.041,1.447,0.819c0.688-1.372,1.999-2.287,3.471-2.667
				c1.609,0.244,3.044,1.457,3.697,2.964C387.612,79.237,386.992,71.097,383.283,64.587z"/>
		</g>
	</g>
	<g>
		<g>
			<g>
				<path style="fill:#4A5B7E;" d="M260.255,339.514c-2.693-7.319-72.408-36.938-72.408-36.938l-74.842,11.917
					c0,0-4.209,13.957-1.996,29.787s20.255,70.809,20.255,70.809l-50.086,7.476c-1.533,6.376-2.973,12.763-3.74,19.254
					c-0.066,1.332-0.14,2.664-0.219,3.995c23.101,1.146,79.677,3.299,87.236-2.64c9.532-7.489-0.417-102.256-0.417-102.256
					l61.863,23.277l1.173,72.593h23.678C250.753,436.787,262.948,346.833,260.255,339.514z"/>
				<g>
					<g>
						<g>
							<path style="fill:#8FA2C7;" d="M119.987,319.556c-1.452,6.299-1.939,12.835-1.28,19.239c0.172,1.599,0.412,3.191,0.762,4.759
								c0.339,1.571,0.808,3.098,1.285,4.654c0.939,3.101,1.829,6.212,2.711,9.326c3.5,12.464,6.759,24.992,9.866,37.561
								c1.495,6.301,3.005,12.593,4.148,18.993c0.137,0.802,0.261,1.608,0.355,2.426c0.043,0.412,0.086,0.82,0.085,1.26
								c0,0.219-0.002,0.443-0.085,0.746c-0.042,0.105-0.133,0.249-0.186,0.3l-0.122,0.113c-0.085,0.074-0.157,0.153-0.252,0.221
								c-0.338,0.287-0.828,0.54-1.338,0.569c-0.504,0.028-0.877-0.06-1.232-0.043c-0.718,0.009-1.352,0.326-2.09,0.715
								c-0.727,0.37-1.466,0.725-2.222,1.046c-0.766,0.296-1.451,0.685-2.409,0.753c-1.616,0.199-3.222,0.363-4.833,0.533
								l-19.319,1.926l-19.334,1.756l38.567-4.446c1.604-0.192,3.215-0.38,4.806-0.599l0.53-0.078
								c0.082-0.016,0.154-0.009,0.246-0.039l0.293-0.128l1.117-0.461c0.732-0.314,1.451-0.663,2.163-1.03
								c0.678-0.362,1.536-0.814,2.461-0.822c0.454-0.016,0.885,0.068,1.19,0.04c0.303-0.023,0.57-0.151,0.849-0.382
								c0.07-0.048,0.135-0.121,0.202-0.18l0.101-0.093c0.014-0.023-0.04,0.022-0.029,0.042c0.018-0.089,0.041-0.272,0.034-0.457
								c-0.001-0.37-0.042-0.768-0.085-1.159c-0.094-0.788-0.22-1.581-0.359-2.373c-1.16-6.337-2.704-12.629-4.221-18.911
								c-3.023-12.576-6.295-25.096-9.634-37.593c-0.838-3.123-1.684-6.245-2.576-9.351c-0.449-1.542-0.91-3.121-1.23-4.716
								c-0.33-1.595-0.559-3.21-0.698-4.829c-0.27-3.241-0.207-6.499,0.095-9.725C118.627,325.891,119.153,322.683,119.987,319.556z
								"/>
						</g>
						<g>
							<path style="fill:#8FA2C7;" d="M153.528,440.667c0.801-1.416,1.639-2.697,2.398-4.046c0.784-1.335,1.471-2.701,2.296-4.104
								c-0.065,1.634-0.635,3.195-1.43,4.603C155.972,438.513,154.908,439.789,153.528,440.667z"/>
						</g>
						<g>
							<path style="fill:#8FA2C7;" d="M129.259,318.968c0.43,1.1,0.702,2.258,0.908,3.429c0.174,1.176,0.242,2.371,0.213,3.567
								c-0.058,2.393-0.595,4.778-1.526,6.997c-0.952,2.21-2.297,4.251-3.981,5.953c-0.842,0.85-1.75,1.63-2.718,2.32
								c-0.987,0.664-2.01,1.271-3.101,1.723c0.982-0.652,1.934-1.331,2.799-2.11c0.885-0.752,1.707-1.572,2.452-2.453
								c1.489-1.759,2.741-3.712,3.628-5.825c0.908-2.104,1.446-4.361,1.681-6.654C129.839,323.619,129.701,321.28,129.259,318.968z
								"/>
						</g>
						<g>
							<path style="fill:#8FA2C7;" d="M163.84,340.772c0.088,0.179-0.124,0.471-0.402,0.366c-0.039-0.015-0.059-0.059-0.044-0.098
								l0.014-0.023l0.017-0.019c1.645-1.867,3.44-3.562,5.301-5.181c1.871-1.609,3.791-3.16,5.899-4.498
								c-1.607,1.91-3.401,3.607-5.244,5.246c-1.853,1.629-3.772,3.182-5.842,4.563l-0.014-0.14
								C163.597,341.075,163.868,340.977,163.84,340.772z"/>
						</g>
						<g>
							<path style="fill:#8FA2C7;" d="M169.732,336.203c10.264,3.591,20.474,7.331,30.653,11.157
								c5.096,1.896,10.16,3.878,15.218,5.879c2.528,1.005,5.05,2.024,7.56,3.08c1.256,0.527,2.506,1.071,3.751,1.634
								c0.62,0.292,1.242,0.579,1.859,0.905c0.316,0.163,0.605,0.33,0.952,0.573c0.452,0.273,0.543,0.892,0.594,1.179
								c0.393,2.784,0.458,5.469,0.596,8.199l0.274,8.156c0.14,5.437,0.273,10.873,0.317,16.31
								c0.122,10.873,0.167,21.746,0.056,32.62l-0.825-32.605l-0.457-16.297l-0.319-8.141c-0.148-2.695-0.246-5.457-0.623-8.055
								c-0.024-0.163-0.056-0.328-0.085-0.392c0.002-0.117-0.092-0.146-0.154-0.203c-0.208-0.141-0.505-0.328-0.793-0.474
								c-0.583-0.313-1.194-0.6-1.801-0.89c-1.228-0.564-2.467-1.112-3.715-1.643c-2.495-1.065-5.007-2.097-7.525-3.115
								l-15.155-6.008L169.732,336.203z"/>
						</g>
						<g>
							<path style="fill:#8FA2C7;" d="M226.992,360.932c-0.024-0.766,0.219-1.383,0.524-1.965c0.333-0.567,0.731-1.097,1.397-1.478
								c0.026,0.767-0.217,1.384-0.524,1.965C228.054,360.02,227.657,360.551,226.992,360.932z"/>
						</g>
						<g>
							<path style="fill:#8FA2C7;" d="M229.145,363.221c0.071-0.849,0.401-1.535,0.791-2.182c0.417-0.63,0.896-1.221,1.635-1.647
								c-0.07,0.85-0.399,1.536-0.791,2.182C230.361,362.203,229.882,362.794,229.145,363.221z"/>
						</g>
					</g>
				</g>
			</g>
			<g>
				<path style="fill:#242A4B;" d="M226.328,442.578l-0.851-15.83h19.83c0,0,2.213-5.106,4.596-5.106
					c2.383,0,4.255,2.553,4.425,3.66c0.17,1.106-2.468,16.085-2.468,16.085s19.319,9.106,23.149,9.191
					c1.149,0.025,1.838,0.58,2.24,1.343c1.127,2.14-0.627,4.7-3.046,4.7h-45.969c-1.686,0-3.096-1.256-3.312-2.928
					C224.55,450.83,224.428,446.363,226.328,442.578z"/>
				<g>
					<g>
						<g>
							<path style="fill:#4C558A;" d="M244.928,426.934c-0.164,1.984-0.35,3.961-0.452,5.944c-0.137,1.979-0.235,3.961-0.285,5.942
								c0.009,1.972-0.241,4.005,0.194,5.815c0.221,0.902,0.67,1.699,1.356,2.274c0.682,0.583,1.556,0.957,2.469,1.232
								c3.767,0.993,7.702,1.841,11.587,2.401c3.9,0.541,7.894,0.634,11.787-0.232c-1.887,0.642-3.877,0.968-5.873,1.128
								c-2.001,0.128-4.011,0.054-6.004-0.133c-1.997-0.174-3.967-0.536-5.926-0.912c-1.964-0.412-3.884-0.75-5.868-1.299
								c-0.976-0.312-1.972-0.741-2.798-1.466c-0.835-0.716-1.384-1.748-1.614-2.779c-0.242-1.036-0.257-2.073-0.234-3.078
								c0.026-1.004,0.084-1.994,0.158-2.99C243.698,434.805,244.171,430.842,244.928,426.934z"/>
						</g>
						<g>
							<path style="fill:#4C558A;" d="M225.051,454.279c4.308-0.206,8.617-0.303,12.925-0.383c4.309-0.082,8.617-0.075,12.926-0.117
								c4.309,0.039,8.617,0.035,12.925,0.115l6.463,0.14c2.154,0.083,4.309,0.132,6.463,0.245
								c-2.154,0.113-4.309,0.162-6.463,0.245l-6.463,0.14c-4.309,0.08-8.617,0.076-12.925,0.115
								c-4.309-0.042-8.617-0.034-12.926-0.116C233.668,454.582,229.36,454.485,225.051,454.279z"/>
						</g>
					</g>
				</g>
			</g>
			<g>
				<path style="fill:#242A4B;" d="M70.323,416.766l15.289,4.189l-6.259,18.816c0,0,4.147,3.712,3.395,5.973
					c-0.752,2.261-3.766,3.232-4.869,3.044c-1.104-0.188-14.484-7.419-14.484-7.419s-14.739,15.457-16.029,19.064
					c-0.387,1.082-1.13,1.561-1.981,1.702c-2.386,0.394-4.261-2.079-3.498-4.373l14.51-43.619c0.532-1.6,2.169-2.541,3.824-2.219
					C63.053,412.475,67.331,413.769,70.323,416.766z"/>
				<g>
					<g>
						<g>
							<path style="fill:#4C558A;" d="M60.77,412.037c-1.238,4.208-2.649,8.357-4.047,12.509c-1.403,4.151-2.894,8.27-4.338,12.405
								c-1.521,4.108-3.002,8.23-4.563,12.324l-2.36,6.134c-0.821,2.032-1.611,4.076-2.461,6.097
								c0.637-2.099,1.334-4.175,1.999-6.264l2.098-6.228c1.411-4.148,2.9-8.267,4.347-12.402c1.523-4.107,2.999-8.231,4.557-12.326
								l2.349-6.138L60.77,412.037z"/>
						</g>
						<g>
							<path style="fill:#4C558A;" d="M78.778,439.768c-2.569-0.98-5.175-1.81-7.831-2.404c-1.332-0.277-2.665-0.547-4.009-0.723
								c-1.334-0.184-2.672-0.29-3.941-0.06c-2.568,0.381-4.557,2.479-5.646,4.867c-0.559,1.204-0.901,2.523-1.135,3.859
								c-0.269,1.335-0.392,2.704-0.577,4.068c-0.059-2.734-0.021-5.555,1.003-8.225c0.502-1.328,1.29-2.56,2.326-3.577
								c1.034-1.012,2.413-1.733,3.857-1.976c1.445-0.239,2.881-0.11,4.253,0.111c1.369,0.238,2.726,0.523,4.056,0.914
								C73.798,437.382,76.381,438.413,78.778,439.768z"/>
						</g>
					</g>
				</g>
			</g>
		</g>
		<g>
			<g>
				<g>
					<path style="fill:#C27559;" d="M132.028,205.799c-0.237,0.008-0.473,0.034-0.709,0.053c4.724,4.121,9.859,7.755,15.391,10.75
						c5.615,3.04,12.079,5.335,18.515,3.747c1.248-0.308,2.243-0.747,3.042-1.288c0.965-3.836,2.017-7.657,2.233-11.584
						c-1.174-0.796-2.22-1.661-3.131-2.757c-0.302-1.089-1.039-3.871-1.59-7.016c-0.48-2.77-0.82-5.81-0.58-8.2v-0.01
						c0.11-1.18,0.36-2.2,0.81-2.95l-23.89-13.43l-2.91-1.64c0.02,0.09,0.03,0.17,0.05,0.26c0.01,0.08,0.03,0.18,0.05,0.29
						c0.31,1.85,1.3,8.13,1.65,15.09c0.297,5.958,0.103,12.389-1.388,17.012C137.562,205.046,135.085,205.692,132.028,205.799z"/>
					<path style="fill:#AD6044;" d="M165.775,197.707c-14.57,1.84-21.95-15.56-22.22-16.21c2.69,4.27,6.59,6.43,10.4,7.46
						c4.69,1.28,9.24,0.85,11.15,0.57c0.03-0.01,0.06-0.01,0.09-0.02C164.955,191.897,165.295,194.937,165.775,197.707z"/>
				</g>
				<path style="fill:#F8D8B1;" d="M167.37,204.722c0,0-1.819,8.835-7.473,9.005c-5.654,0.17-20.305-9.603-20.305-9.603
					s-20.923-6.365-29.944,1.534c-9.021,7.899-1.021,21.005-1.021,21.005l4.379,64.851c0,0-5.23,15.149-1.315,27.404
					c0,0,61.447-0.099,79.83-14.262c0,0-0.855-7.695-6.811-12.802l-3.402-11.745l3.755-66.38L167.37,204.722z"/>
			</g>
			<g>
				<path style="fill:#D88567;" d="M248.98,299.081c0,0,9.516-0.549,10.111-1.819s-10.111-2.052-10.111-2.052
					s9.773-1.125,9.568-1.909c-0.51-1.949-14.271-0.732-14.231-2.205c0.042-1.301,3.077-2.901,4.767-3.442
					c0.352-0.113,0.518-0.466,0.364-0.801c-0.309-0.673-1.066-1.56-2.891-1.103c-2.516,0.629-7.608,2.009-12.632,6.045
					c-2.298-0.361-5.481-0.861-9.331-1.47c-0.043,1.334-0.077,2.664-0.079,3.984c-0.006,2.849-0.052,5.746-0.062,8.655
					c0.074,0.866,0.147,1.733,0.217,2.601c4.767-0.871,9.513-1.96,14.2-3.316l-0.005-0.153c4.745,1.897,11.723,4.386,15.38,4.209
					c0.378-0.019,0.545-0.417,0.309-0.709c-0.496-0.619-1.879-1.638-5.657-2.818c0,0,8.403,0.423,9.546-0.605
					C259.576,301.142,248.98,299.081,248.98,299.081z"/>
				<path style="fill:#F8D8B1;" d="M167.51,205.216c0,0,20.714,9.107,22.958,12.238c2.244,3.13,16.787,63.492,16.787,63.492
					s2.242,2.095,2.945,4.108c0.703,2.013,21.248,5.056,21.248,5.056s4.106,11.718,1.732,14.604
					c-2.374,2.886-36.724,2.806-46.687-2.479s-18.277-55.502-18.277-55.502S169.964,209.072,167.51,205.216z"/>
			</g>
			<g>
				<g>
					<g>
						<path style="fill:#476765;" d="M175.971,306.649l-28.417,0.625c0,0-1.743,5.552,1.644,6.996
							c3.387,1.444,27.502-0.135,27.502-0.135L175.971,306.649z"/>
						<path style="fill:#B06E53;" d="M175.588,299.155l-28.746,1.01c0,0-1.694,4.98,0.713,7.108
							c2.407,2.129,30.459-0.778,30.459-0.778L175.588,299.155z"/>
						<path style="fill:#BD4C37;" d="M175.553,291.654l-29.135,0.721c0,0-1.977,4.013-0.155,7.23
							c0.268,0.473,0.758,0.736,1.266,0.719l29.837-1.017L175.553,291.654z"/>
						<path style="fill:#F2E8E2;" d="M175.209,291.662c0,0-27.404,1.987-29.123,0.558c-1.719-1.429-1.382-8.703,0.803-9.349
							c2.185-0.645,28.586,0.919,28.586,0.919L175.209,291.662z"/>
						<path style="fill:#4A826B;" d="M174.444,276.676l-28.382-2.64c0,0-3.437,6.868-0.235,9.129
							c3.202,2.261,29.344,0.996,29.344,0.996L174.444,276.676z"/>
						<path style="fill:#476765;" d="M174.062,269.182l-27.193-6.503c0,0-4.022,5.761-2.111,9.918
							c0.467,1.017,1.391,1.668,2.413,1.833c4.683,0.76,21.4,3.309,28.427,2.146L174.062,269.182z"/>
						<path style="fill:#BD4C37;" d="M147.11,254.251c0,0-3.376,5.158-0.857,7.937c2.519,2.779,24.529,7.409,27.808,6.994
							c3.28-0.415,2.841-13.394,2.841-13.394L147.11,254.251z"/>
						<path style="fill:#5F8A87;" d="M249.343,310.526l-72.643,3.608c-2.16,0.107-3.951-1.497-4.001-3.583l0,0
							c-0.05-2.086,1.661-3.864,3.821-3.971l72.941-3.623c0.965-0.048,1.48,1.05,0.821,1.749l-0.203,0.216
							c-0.981,1.041-0.943,2.626,0.085,3.568l0,0C250.934,309.195,250.419,310.473,249.343,310.526z"/>
						<path style="fill:#96563C;" d="M248.961,303.033l-72.643,3.608c-2.16,0.107-3.951-1.497-4.001-3.583l0,0
							c-0.05-2.086,1.661-3.864,3.821-3.971l72.941-3.623c0.965-0.048,1.48,1.05,0.821,1.749l-0.203,0.215
							c-0.981,1.041-0.943,2.626,0.085,3.568l0,0C250.552,301.702,250.037,302.98,248.961,303.033z"/>
						<path style="fill:#F0907F;" d="M248.579,295.54l-72.643,3.608c-2.16,0.107-3.951-1.497-4.001-3.583v0
							c-0.05-2.086,1.661-3.864,3.821-3.971l72.941-3.623c0.965-0.048,1.48,1.05,0.821,1.75l-0.203,0.215
							c-0.981,1.041-0.943,2.626,0.085,3.568l0,0C250.169,294.208,249.654,295.486,248.579,295.54z"/>
						<path style="fill:#F2DACB;" d="M248.196,288.046l-72.643,3.608c-2.16,0.107-3.951-1.497-4.001-3.583l0,0
							c-0.05-2.086,1.661-3.864,3.821-3.971l72.941-3.623c0.965-0.048,1.48,1.05,0.821,1.749l-0.203,0.215
							c-0.981,1.041-0.943,2.626,0.085,3.567l0,0C249.787,286.715,249.272,287.993,248.196,288.046z"/>
						<path style="fill:#5BA184;" d="M247.814,280.553l-72.643,3.608c-2.16,0.107-3.951-1.497-4.001-3.583l0,0
							c-0.05-2.086,1.661-3.864,3.821-3.971l72.941-3.623c0.965-0.048,1.48,1.05,0.821,1.75l-0.203,0.215
							c-0.981,1.041-0.943,2.626,0.085,3.568l0,0C249.405,279.222,248.89,280.499,247.814,280.553z"/>
						<path style="fill:#5F8A87;" d="M247.432,273.06l-72.644,3.608c-2.16,0.107-3.951-1.497-4.001-3.583l0,0
							c-0.05-2.086,1.661-3.864,3.821-3.971l72.941-3.623c0.965-0.048,1.48,1.05,0.821,1.749l-0.203,0.215
							c-0.981,1.041-0.943,2.626,0.085,3.568l0,0C249.022,271.728,248.508,273.006,247.432,273.06z"/>
						<path style="fill:#F0907F;" d="M247.05,265.566l-72.643,3.608c-2.16,0.107-3.951-1.497-4.001-3.583l0,0
							c-0.05-2.086,1.661-3.864,3.821-3.971l72.941-3.623c0.965-0.048,1.48,1.05,0.821,1.749l-0.203,0.215
							c-0.981,1.041-0.943,2.626,0.085,3.568l0,0C248.64,264.235,248.125,265.513,247.05,265.566z"/>
						<path style="fill:#F06D55;" d="M174.227,261.62l-27.117-7.369l60.225-7.454c3.728-0.461,7.487-0.061,11.04,1.176
							l28.792,10.024L174.227,261.62z"/>
					</g>
					<g>
						<path style="fill:#BD4C37;" d="M170.404,251.216c0,0,5.626-6.298,25.711-4.213
							C196.115,247.003,190.864,257.088,170.404,251.216z"/>
						<path style="fill:#F0907F;" d="M172.695,248.817c0,0,14.459,5.697,20.394-2.031c0.918-1.195,2.542-2.046,4.362-2
							c1.516,0.038,3.146,0.8,4.013,2.721c0,0-3.838,6.413-12.119,7.498c-8.282,1.086-18.656-0.733-24.124-3.022
							C165.221,251.983,166.519,247.196,172.695,248.817z"/>
					</g>
				</g>
				<g>
					<path style="fill:#C27559;" d="M194.249,312.816c0.23-2-13.03-5.86-12.46-7.21c0.51-1.2,3.91-1.59,5.68-1.48
						c0.37,0.02,0.67-0.26,0.64-0.64c-0.05-0.73-0.45-1.82-2.3-2.05c-2.42-0.31-7.23-0.83-12.92,0.73
						c-0.703-0.407-4.941-2.862-11.387-6.621c-0.947,2.19-2.033,4.328-3.035,6.42c-1.184,2.472-2.222,5.004-3.232,7.548
						c4.933,0.967,9.93,1.707,14.974,2.163l0.05-0.16c3.145,3.095,10.867,10.378,15.24,11.853c0.333,0.113,0.678-0.188,0.575-0.525
						c-0.231-0.755-1.141-2.198-4.236-4.678c0.42,0.19,7.7,3.41,9.09,2.88c1.4-0.53-7.17-5.98-7.67-6.3
						c0.46,0.14,9.07,2.9,10.06,1.96c0.99-0.94-8.11-5.3-8.65-5.56C185.229,311.286,194.16,313.596,194.249,312.816z"/>
					<g>
						<path style="fill:#F8D8B1;" d="M114.924,220.365l25.872,13.787l-14.468,37.691l43.404,26.352l-8.851,14.374
							c0,0-58.383-22.418-65.021-29.907C89.221,275.173,114.924,220.365,114.924,220.365z"/>
						<g>
							<g>
								<g>
									<path style="fill:#E0A965;" d="M113.495,292.737c3.975,1.442,7.906,2.984,11.83,4.542
										c3.925,1.555,7.816,3.194,11.725,4.787c3.879,1.668,7.774,3.296,11.639,5.001l5.79,2.577
										c1.917,0.893,3.847,1.754,5.753,2.676c-1.988-0.71-3.953-1.481-5.931-2.22l-5.894-2.318
										c-3.925-1.558-7.819-3.194-11.73-4.79c-3.88-1.671-7.779-3.296-11.644-5.005
										C121.169,296.281,117.311,294.559,113.495,292.737z"/>
								</g>
								<g>
									<path style="fill:#E0A965;" d="M146.262,284.166c-3.424-1.889-6.799-3.857-10.161-5.847
										c-3.374-1.97-6.685-4.042-10.031-6.058c-0.203-0.122-0.284-0.369-0.204-0.583l0.004-0.01
										c0.752-2.02,1.565-4.017,2.344-6.026c0.794-2.004,1.56-4.019,2.377-6.014l2.452-5.985c0.85-1.982,1.672-3.975,2.554-5.946
										c-0.663,2.054-1.385,4.086-2.08,6.128l-2.182,6.088c-0.728,2.029-1.507,4.039-2.258,6.059
										c-0.766,2.015-1.497,4.043-2.29,6.047l-0.2-0.593c3.299,2.092,6.633,4.126,9.904,6.264
										C139.772,279.809,143.042,281.947,146.262,284.166z"/>
								</g>
								<g>
									<path style="fill:#E0A965;" d="M123.674,266.597c0.679,0.042,1.158,0.271,1.624,0.54c0.45,0.295,0.868,0.621,1.208,1.212
										c-0.673,0.129-1.237-0.072-1.734-0.362C124.291,267.671,123.86,267.255,123.674,266.597z"/>
								</g>
								<g>
									<path style="fill:#E0A965;" d="M123.307,273.345c0.15-0.527,0.538-0.772,0.936-0.882c0.404-0.083,0.861-0.04,1.233,0.365
										c-0.379,0.39-0.675,0.516-1.002,0.607C124.142,273.499,123.821,273.52,123.307,273.345z"/>
								</g>
								<g>
									<path style="fill:#E0A965;" d="M109.392,227.897c0.57-3.408,1.909-6.684,3.729-9.65c1.818-2.969,4.165-5.653,6.969-7.755
										c0.654-0.587,1.438-0.994,2.162-1.484c0.734-0.476,1.462-0.962,2.27-1.306l2.364-1.128
										c0.822-0.291,1.652-0.562,2.479-0.832l1.24-0.406c0.422-0.103,0.851-0.18,1.275-0.27l2.549-0.521
										c0.849-0.168,1.726-0.16,2.584-0.248c0.861-0.07,1.722-0.127,2.58-0.175c-1.697,0.34-3.407,0.518-5.073,0.904l-2.481,0.65
										c-0.412,0.111-0.828,0.208-1.235,0.331l-1.192,0.463l-2.383,0.909l-2.266,1.16c-0.37,0.206-0.772,0.355-1.121,0.596
										l-1.063,0.695c-0.696,0.48-1.451,0.879-2.079,1.453c-2.728,2.013-5.009,4.581-6.934,7.377
										c-0.497,0.691-0.901,1.443-1.357,2.163c-0.408,0.747-0.804,1.505-1.174,2.274
										C110.483,224.636,109.869,226.241,109.392,227.897z"/>
								</g>
								<g>
									<path style="fill:#E0A965;" d="M152.872,217.337c1.502,0.997,3.18,1.612,4.888,1.888c1.709,0.26,3.464,0.169,5.09-0.344
										c1.631-0.496,3.131-1.412,4.394-2.591c1.253-1.191,2.291-2.646,2.969-4.316c-0.301,1.78-1.162,3.492-2.411,4.862
										c-1.238,1.382-2.861,2.437-4.657,3.001c-1.8,0.547-3.735,0.593-5.537,0.151
										C155.803,219.562,154.126,218.635,152.872,217.337z"/>
								</g>
								<g>
									<path style="fill:#E0A965;" d="M184.709,226.748c0.156,1.501,0.388,2.994,0.503,4.494c0.143,1.499,0.233,3,0.314,4.502
										c0.129,3.005,0.19,6.014-0.049,9.04c-0.552-2.984-0.792-5.986-0.949-8.992c-0.061-1.504-0.109-3.009-0.093-4.516
										C184.452,229.769,184.479,228.254,184.709,226.748z"/>
								</g>
							</g>
						</g>
					</g>
				</g>
			</g>
		</g>
		<g>
			<g>
				<path style="fill:#C27559;" d="M179.58,175.966c-0.02,1.42-0.06,2.88-0.54,4.22c-1.79,5.05-8.87,8.22-13.84,9.32
					c-0.11,0.03-0.23,0.06-0.34,0.08c-6.4,1.32-12.84-0.35-17.86-4.53c-0.87-0.72-1.67-1.51-2.4-2.35
					c-2.64-3.02-4.4-6.73-5.26-10.68h-0.03c-1.14,0.09-2.73-0.17-3.09-0.31c-0.72-0.27-1.41-0.7-2.03-1.23
					c-0.63-0.53-1.18-1.15-1.6-1.8c-1-1.55-1.38-3.53-0.82-5.28c0.7-2.2,3.05-3.97,5.39-3.38c0.17,0.04,0.41,0.14,0.69,0.27
					c-0.32-7.68,0.81-16.1,6.16-20.75c11.5-10,28-6.5,31.5,2.5C179.51,152.336,179.71,165.076,179.58,175.966z"/>
				<g>
					<g>
						<g>
							<path style="fill:#3D1525;" d="M171.208,160.108c0,1.67,0.661,3.023,1.477,3.023c0.815,0,1.476-1.353,1.476-3.023
								c0-1.669-0.661-3.023-1.476-3.023C171.869,157.085,171.208,158.439,171.208,160.108z"/>
						</g>
						<g>
							<path style="fill:#3D1525;" d="M161.373,160.108c0,1.67-0.661,3.023-1.477,3.023c-0.815,0-1.477-1.353-1.477-3.023
								c0-1.669,0.661-3.023,1.477-3.023C160.712,157.085,161.373,158.439,161.373,160.108z"/>
						</g>
					</g>
					<g>
						<path style="fill:#3D1525;" d="M171.835,169.253c-0.512,0.997-1.291,1.857-2.226,2.531c-0.933,0.674-2.101,1.107-3.305,1.097
							c-1.196-0.03-2.37-0.437-3.29-1.135c-0.482-0.316-0.859-0.758-1.275-1.134c-0.348-0.447-0.687-0.895-0.992-1.358
							c0.456,0.334,0.872,0.689,1.29,1.034c0.465,0.282,0.88,0.63,1.35,0.866c0.917,0.525,1.92,0.813,2.92,0.83
							c1.005,0.024,2.006-0.294,2.931-0.792C170.16,170.682,171.029,170.022,171.835,169.253z"/>
						<path style="fill:#3D1525;" d="M167.846,174.613c-0.421,0.374-0.998,0.509-1.554,0.527c-0.559-0.018-1.127-0.169-1.556-0.527
							c0.546,0.087,1.042,0.194,1.556,0.174C166.805,174.807,167.308,174.718,167.846,174.613z"/>
					</g>
					<g>
						<path style="fill:#3D1525;" d="M162.601,149.624c-0.689-0.611-1.469-0.811-2.288-0.847c-0.812-0.019-1.646,0.077-2.437,0.346
							c-0.797,0.243-1.532,0.691-2.146,1.229c-0.64,0.518-1.09,1.203-1.465,1.878c-0.189,0.341-0.066,0.772,0.275,0.961
							c0.273,0.152,0.603,0.103,0.821-0.097l0.06-0.055c0.481-0.442,0.942-0.857,1.458-1.158c0.496-0.334,1.053-0.517,1.61-0.661
							c0.562-0.13,1.147-0.2,1.744-0.169c0.589,0.02,1.217,0.05,1.864-0.108l0.187-0.046c0.397-0.097,0.64-0.498,0.543-0.895
							C162.791,149.85,162.71,149.72,162.601,149.624z"/>
						<path style="fill:#3D1525;" d="M169.981,149.624c0.689-0.611,1.468-0.811,2.288-0.847c0.812-0.019,1.646,0.077,2.437,0.346
							c0.797,0.243,1.532,0.691,2.146,1.229c0.64,0.518,1.09,1.203,1.464,1.878c0.19,0.341,0.067,0.772-0.275,0.961
							c-0.273,0.152-0.603,0.103-0.821-0.097l-0.06-0.055c-0.481-0.442-0.942-0.857-1.458-1.158
							c-0.496-0.334-1.053-0.517-1.61-0.661c-0.561-0.13-1.147-0.2-1.744-0.169c-0.589,0.02-1.217,0.05-1.864-0.108l-0.187-0.046
							c-0.397-0.097-0.64-0.498-0.543-0.895C169.79,149.85,169.872,149.72,169.981,149.624z"/>
					</g>
					<path style="fill:#3D1525;" d="M169.271,155.208c0.261,1.139,0.453,2.27,0.664,3.391c0.218,1.117,0.424,2.232,0.742,3.291
						c0.073,0.266,0.156,0.528,0.251,0.78c0.077,0.207,0.262,0.604,0.257,0.975c0.039,0.755-0.444,1.494-1.06,1.793
						c-0.629,0.353-1.355,0.298-1.927,0.103c-0.581-0.21-1.088-0.525-1.526-0.913c1.06,0.398,2.298,0.709,3.044,0.146
						c0.375-0.285,0.577-0.664,0.524-1.078c-0.019-0.212-0.086-0.347-0.221-0.671c-0.114-0.283-0.214-0.567-0.299-0.854
						c-0.323-1.152-0.49-2.314-0.555-3.478C169.096,157.53,169.119,156.366,169.271,155.208z"/>
					<path style="fill:#3D1525;" d="M133.497,164.758c-0.017-0.694,0.175-1.463,0.787-2.001c0.651-0.533,1.577-0.484,2.281-0.22
						c0.747,0.259,1.359,0.77,1.841,1.343c0.494,0.579,0.852,1.208,1.145,1.93c0.104,0.258-0.02,0.552-0.278,0.656
						c-0.195,0.079-0.409,0.027-0.548-0.113l-0.033-0.034c-0.491-0.499-1.109-1.032-1.692-1.197
						c-0.292-0.076-0.509-0.066-0.711,0.078c-0.209,0.148-0.37,0.461-0.508,0.784c-0.258,0.663-0.413,1.438,0.153,1.745
						c0.593,0.337,1.462,0.256,2.237,0.153c-0.732,0.321-1.54,0.591-2.458,0.33c-0.466-0.151-0.837-0.681-0.868-1.159
						c-0.045-0.478,0.024-0.913,0.143-1.338c0.126-0.42,0.302-0.867,0.715-1.235c0.419-0.376,1.078-0.464,1.547-0.319
						c0.956,0.288,1.602,0.841,2.203,1.483l-0.86,0.509c-0.463-1.158-1.223-2.362-2.321-2.904c-0.549-0.263-1.199-0.396-1.719-0.104
						C134.009,163.427,133.681,164.093,133.497,164.758z"/>
				</g>
			</g>
			<g>
				<g>
					<path style="fill:#242A4B;" d="M171.39,132.856c-0.26-0.1-0.54-0.16-0.82-0.18c-3.05-0.21-11.09-1.02-19.02,2.35
						c-2.62,0.99-9.33,6.32-10.03,7.38c-0.01,0-0.01,0.01-0.01,0.02c-3.58,4.21-6.49,10.15-8.01,18.5c-0.8,0.64-1.42,1.52-1.73,2.48
						c-0.56,1.75-0.18,3.73,0.82,5.28c0.83,1.28,2.18,2.48,3.63,3.03c0.36,0.14,1.95,0.4,3.09,0.31c0.13,0.81,0.4,2.46,0.69,4.65
						c-3.15,1.01-6.38,1.91-9.68,1.8c-3.7-0.11-7.57-1.74-9.39-4.97c-1.62-2.89-1.33-6.5-0.27-9.64c1.05-3.15,2.79-6.01,4.02-9.09
						c2.14-5.37,2.73-11.39,5.81-16.28c3.2-5.08,8.81-8.32,14.68-9.57c5.86-1.25,11.98-0.69,17.85,0.57
						C165.99,130.126,168.999,130.986,171.39,132.856z"/>
					<g>
						<path style="fill:#3D1525;" d="M140.96,187.116c-1.78,1.07-3.92,1.62-5.93,1.45c0.68-1.02,1.19-2.55,1.02-3.76
							c-1.87,1.27-4.39,1.58-6.52,0.82c2.61-1.41,3.89-4.47,4.29-7.4c0.35-2.56,0.17-5.17,0.37-7.74c0.62,0.53,1.31,0.96,2.03,1.23
							c0.36,0.14,1.95,0.4,3.09,0.31C139.619,173.876,140.609,180.156,140.96,187.116z"/>
						<path style="fill:#3D1525;" d="M138.296,160.136c1.474,2.109,2.427,4.579,2.751,7.131c4.46-2.78,7.072-8.115,6.434-13.331
							c6.164-1.965,11.797-5.385,16.393-9.938c3.891,3.559,8.957,6.194,14.182,6.91c0,0-0.558-7.585-3.686-10.713
							c-3.128-3.128-18.319-2.042-23.872,2.553C144.945,147.344,138.296,160.136,138.296,160.136z"/>
					</g>
					<path style="fill:#4A5B7E;" d="M133.496,160.93c0,0,3.011-2.012,5.709,0.456c0,0,8.447-27.922,36.905-18.549
						c0,0-0.079-4.603-3.421-9.015c-0.508-0.671-1.281-1.092-2.121-1.149C164.568,132.266,139.205,129.535,133.496,160.93z"/>
				</g>
				<g>
					<g>
						<g>
							<path style="fill:#8FA2C7;" d="M135.948,152.442c1.162,0.004,2.233,0.393,3.215,0.917c0.968,0.55,1.868,1.25,2.489,2.233
								c-1.103-0.353-2.03-0.855-2.972-1.359C137.753,153.704,136.834,153.186,135.948,152.442z"/>
						</g>
					</g>
					<g>
						<g>
							<path style="fill:#8FA2C7;" d="M142.3,141.501c1.22,0.689,2.22,1.591,3.169,2.543c0.926,0.974,1.8,2,2.452,3.24
								c-1.221-0.688-2.222-1.59-3.169-2.543C143.827,143.765,142.954,142.739,142.3,141.501z"/>
						</g>
					</g>
					<g>
						<g>
							<path style="fill:#8FA2C7;" d="M152.81,134.656c0.965,1.115,1.615,2.406,2.143,3.736c0.499,1.341,0.881,2.735,0.907,4.211
								c-0.786-1.246-1.322-2.542-1.84-3.852C153.531,137.429,153.061,136.107,152.81,134.656z"/>
						</g>
					</g>
					<g>
						<g>
							<path style="fill:#8FA2C7;" d="M163.316,132.607c0.735,1.277,1.129,2.664,1.402,4.067c0.242,1.409,0.362,2.846,0.124,4.3
								c-0.549-1.366-0.84-2.738-1.107-4.121C163.499,135.465,163.286,134.078,163.316,132.607z"/>
						</g>
					</g>
					<g>
						<g>
							<path style="fill:#8FA2C7;" d="M170.624,133.486c0.798,1.176,1.195,2.543,1.382,3.921c0.158,1.381,0.109,2.804-0.378,4.14
								c-0.306-1.382-0.435-2.694-0.614-4.016C170.865,136.204,170.669,134.9,170.624,133.486z"/>
						</g>
					</g>
					<g>
						<path style="fill:#4C558A;" d="M128.194,161.536c0.709-0.612,1.591-0.854,2.466-0.923c0.876-0.04,1.782,0.094,2.559,0.618
							c-0.894,0.262-1.687,0.317-2.499,0.379C129.907,161.644,129.112,161.686,128.194,161.536z"/>
					</g>
				</g>
			</g>
		</g>
	</g>
	<g>
		<g>
			<g>
				<g>
					<polygon style="fill:#B06E53;" points="239.194,351.283 485.743,351.283 505.148,309.666 258.598,309.666 					"/>
					<rect x="279.62" y="322.773" style="fill:#B06E53;" width="246.549" height="139.404"/>
					<polygon style="fill:#6B393A;" points="279.62,462.177 259.361,449.07 259.361,309.666 279.62,322.773 					"/>
					<polygon style="fill:#B06E53;" points="279.62,322.773 259.361,309.666 506.509,309.666 526.169,322.773 					"/>
					<polygon style="fill:#D68564;" points="545.488,364.39 298.939,364.39 279.535,322.773 526.084,322.773 					"/>
				</g>
			</g>
			<g>
				<rect x="321.352" y="384.729" style="fill:#D68564;" width="167.652" height="33.532"/>
				<g>
					
						<text transform="matrix(1 0 0 1 326.4271 409.5506)" style="fill:#6B393A; font-family:'Montserrat-SemiBold'; font-size:24.633px;">DONATIONS</text>
				</g>
			</g>
		</g>
		<g>
			<g>
				<path style="fill:#6B393A;" d="M520.115,322.773c0.302-1.792-0.69-3.786-2.177-4.96c-1.819-1.436-4.156-1.985-6.366-2.682
					c-9.29-2.931-17.843-9.125-27.584-9.013c-6.01,0.069-11.68,2.566-17.318,4.648c-5.638,2.082-11.783,3.797-17.595,2.266
					c-3.333-0.878-6.303-2.767-9.521-4.003c-3.218-1.236-7.04-1.749-9.973,0.063c-2.235,1.381-3.568,3.93-3.963,6.527
					c-0.362,2.381-0.017,4.81,0.564,7.154H520.115z"/>
				<g>
					<g>
						<g>
							<path style="fill:#4D1B1C;" d="M433.443,318.838c-0.365-0.064-0.689-0.31-0.877-0.636c-0.189-0.328-0.258-0.714-0.247-1.091
								c0.016-0.378,0.119-0.758,0.32-1.09c0.206-0.336,0.519-0.585,0.848-0.775c1.392-0.748,2.991-0.492,4.428-0.363
								c2.943,0.354,5.817,1.082,8.67,1.783c2.856,0.688,5.691,1.429,8.578,1.745c2.885,0.329,5.809,0.292,8.723,0.093
								c5.834-0.311,11.683-1.332,17.628-1.123c2.958,0.116,5.929,0.471,8.776,1.321c2.839,0.848,5.547,2.202,7.785,4.121
								c-2.377-1.738-5.079-2.97-7.916-3.648c-2.821-0.739-5.749-1.002-8.662-1.024c-5.839-0.05-11.65,0.954-17.55,1.351
								c-2.951,0.171-5.934,0.18-8.892-0.188c-2.959-0.37-5.838-1.103-8.665-1.907c-2.831-0.792-5.653-1.591-8.541-2.04
								c-1.426-0.207-2.939-0.508-4.237,0.113c-0.312,0.161-0.604,0.37-0.799,0.656c-0.196,0.288-0.309,0.635-0.344,0.988
								C432.376,317.808,432.684,318.652,433.443,318.838z"/>
						</g>
						<g>
							<path style="fill:#4D1B1C;" d="M488.476,318.678c2.132-1.184,4.292-2.191,6.436-3.252c2.158-1.033,4.284-2.11,6.533-3.053
								c-1.83,1.617-3.922,2.879-6.096,3.952C493.162,317.37,490.877,318.236,488.476,318.678z"/>
						</g>
					</g>
				</g>
			</g>
			<g>
				<path style="fill:#F8D8B1;" d="M360.297,322.773c0,0-4.17-7.883,0-13.106c4.17-5.223,64.766-3.606,66.638,0.819
					c1.872,4.426,2.553,9.595,0,12.287H360.297z"/>
				<g>
					<g>
						<path style="fill:#E0A965;" d="M410.073,314.841c1.105,0.04,2.336,0.09,3.237,0.883c0.432,0.382,0.758,0.931,0.77,1.54
							c0.012,0.613-0.329,1.179-0.779,1.557c-0.942,0.789-2.192,0.834-3.286,0.971c-1.126,0.13-2.255,0.24-3.385,0.327
							c-4.524,0.335-9.064,0.368-13.594,0.297c-2.265-0.035-4.529-0.099-6.79-0.188c-2.259-0.088-4.529-0.148-6.804-0.377
							c-2.27-0.231-4.553-0.616-6.74-1.388c-0.544-0.198-1.085-0.407-1.612-0.652c-0.268-0.112-0.524-0.25-0.783-0.382
							c-0.255-0.134-0.517-0.246-0.809-0.471c-0.272-0.195-0.622-0.623-0.572-1.137c0.046-0.526,0.404-0.854,0.684-1.043
							c0.29-0.197,0.613-0.323,0.89-0.411l0.821-0.262c2.204-0.653,4.451-1.08,6.69-1.439c2.241-0.366,4.491-0.689,6.75-0.92
							c4.516-0.477,9.058-0.74,13.597-0.674c4.539,0.064,9.072,0.376,13.57,0.946c4.493,0.603,8.957,1.422,13.34,2.553
							c-4.433-0.91-8.901-1.63-13.397-2.066c-4.491-0.469-9.005-0.694-13.515-0.664c-4.51,0.055-9.017,0.288-13.495,0.809
							c-2.241,0.243-4.47,0.579-6.691,0.957c-2.224,0.37-4.429,0.81-6.562,1.453c-0.527,0.171-1.109,0.306-1.447,0.535
							c-0.182,0.118-0.26,0.245-0.256,0.298c-0.011,0.068,0.024,0.156,0.194,0.294c0.154,0.127,0.411,0.251,0.656,0.379
							c0.244,0.126,0.485,0.259,0.738,0.367c0.497,0.236,1.011,0.438,1.528,0.63c2.081,0.75,4.29,1.141,6.514,1.383
							c2.228,0.24,4.484,0.315,6.745,0.418l6.776,0.285c4.515,0.164,9.034,0.215,13.543-0.018c1.128-0.049,2.254-0.122,3.379-0.214
							c1.112-0.097,2.294-0.118,3.155-0.8c0.419-0.331,0.733-0.82,0.74-1.355c0.009-0.534-0.269-1.053-0.664-1.43
							C412.398,315.046,411.177,314.926,410.073,314.841z"/>
					</g>
				</g>
			</g>
			<g>
				<path style="fill:#F06D55;" d="M510.513,398.772c-1.83,1.22-3.66,2.44-5.48,3.68c-0.28,0.18-0.55,0.37-0.83,0.56
					c-4.43,2.99-8.83,6.04-13.16,9.18c-0.2,0.14-0.4,0.29-0.6,0.43c-0.28,0.2-0.56,0.41-0.85,0.6c-2.47,1.77-5.03,3.55-7.5,5.41
					c-2.15-1.7-4.02-3.76-5.47-6.06c-2.9-4.57-4.37-9.85-4.94-15.27c-0.04-0.33-0.07-0.66-0.09-0.99c-0.21-2.3-0.25-4.62-0.18-6.91
					c0.21-6.17,1.19-12.28,1.98-18.41c0.04-0.33,0.09-0.66,0.12-0.99c0.2-1.52,0.37-3.03,0.52-4.55c0.43-4.55,0.58-9.2,0.09-13.74
					c-0.04-0.34-0.08-0.69-0.12-1.03c-0.41-3.08-1.14-6.11-2.29-9c-1.48-3.7-2.8-6.37-4.37-8.63c-0.26-0.38-0.53-0.74-0.8-1.09
					c-2.42-3.1-5.51-5.55-10.49-9.19h46.77c2.19,3.45,3.75,7.3,4.61,11.3c0.07,0.33,0.14,0.67,0.2,1.01
					c0.75,4.11,0.77,8.36-0.02,12.48c-0.35,1.84-0.85,3.65-1.43,5.45c-0.11,0.33-0.22,0.67-0.33,1c-2,5.88-4.65,11.61-5.28,17.69
					c-0.04,0.33-0.07,0.67-0.08,1.01c-0.04,0.4-0.05,0.8-0.06,1.21c-0.09,5.39,1.6,10.59,4.16,15.51c0.15,0.3,0.31,0.6,0.47,0.9
					C506.653,393.263,508.533,396.082,510.513,398.772z"/>
				<path style="opacity:0.5;fill:#F06D55;" d="M497.673,350.992c0.35-5.08,0.72-10.49,0.73-16.01c2.82,0.06,5.64,0.1,8.46,0.1h0.77
					c-0.06-0.34-0.13-0.68-0.2-1.01c-3.01,0-6.02-0.03-9.03-0.1c-0.02-3.71-0.21-7.47-0.69-11.2h-1.01
					c0.49,3.72,0.68,7.47,0.7,11.18c-3.5-0.08-7-0.21-10.5-0.39c0.3-3.58,0.58-7.18,0.8-10.79h-1c-0.22,3.59-0.5,7.17-0.8,10.73
					c-6.47-0.35-12.93-0.86-19.36-1.54c0.27,0.35,0.54,0.71,0.8,1.09c6.14,0.64,12.3,1.12,18.47,1.45
					c-0.17,2.09-0.35,4.16-0.54,6.21c-0.33,3.76-0.66,7.57-0.96,11.39c-3.45-0.37-6.89-0.84-10.31-1.42
					c0.04,0.34,0.08,0.69,0.12,1.03c3.36,0.56,6.74,1.02,10.12,1.38c-0.44,5.82-0.78,11.69-0.87,17.51c0,0.01,0,0.02,0,0.02
					l-9.86-0.62c-0.03,0.33-0.08,0.66-0.12,0.99l9.98,0.63c-0.07,8.2,0.42,15.79,1.48,22.78c-4.38,0.82-8.8,1.46-13.26,1.91
					c0.02,0.33,0.05,0.66,0.09,0.99c4.48-0.45,8.93-1.09,13.34-1.91c1.03,6.42,2.55,12.35,4.57,17.83c0.29-0.19,0.57-0.4,0.85-0.6
					c-1.96-5.35-3.43-11.15-4.44-17.42c4.4-0.84,8.76-1.87,13.07-3.07c1.32,3.99,3.04,7.64,5.13,10.88
					c0.28-0.19,0.55-0.38,0.83-0.56c-2.04-3.15-3.71-6.71-5-10.59c1.68-0.48,3.36-0.99,5.03-1.53c-0.16-0.3-0.32-0.6-0.47-0.9
					c-1.62,0.52-3.24,1.01-4.88,1.48c-0.66-2.15-1.21-4.4-1.64-6.73c-0.7-3.85-1.05-7.77-1.17-11.7l3.59,0.23
					c0.01-0.34,0.04-0.68,0.08-1.01l-3.7-0.23c-0.13-5.83,0.21-11.7,0.6-17.48c1.57,0.05,3.15,0.07,4.73,0.07
					c1.22,0,2.43-0.01,3.65-0.05c0.11-0.33,0.22-0.67,0.33-1c-2.89,0.07-5.77,0.06-8.65-0.02c0.04-0.47,0.07-0.93,0.1-1.4
					L497.673,350.992z M484.373,370.622c0.09-5.79,0.42-11.63,0.86-17.43c3.74,0.38,7.48,0.64,11.24,0.77
					c-0.39,5.76-0.73,11.62-0.6,17.45l-11.5-0.72V370.622z M497.093,384.362c0.43,2.36,0.98,4.64,1.66,6.82
					c-4.26,1.19-8.57,2.2-12.91,3.04c-1.05-6.92-1.53-14.42-1.47-22.53l11.53,0.72C496.023,376.422,496.373,380.422,497.093,384.362
					z M496.673,350.922l-0.04,0.6c-0.03,0.48-0.06,0.96-0.1,1.44c-3.75-0.13-7.49-0.37-11.23-0.75c0.3-3.83,0.64-7.65,0.97-11.41
					c0.18-2.07,0.37-4.15,0.54-6.24c3.53,0.18,7.06,0.3,10.59,0.39C497.393,340.462,497.023,345.862,496.673,350.922z"/>
			</g>
			<g>
				<path style="fill:#5BA184;" d="M361.993,321.043c-0.17,0.37-0.35,0.7-0.54,0.96c-0.35,0.49-0.74,0.77-1.16,0.77h-78.63
					c0,0-2.22-3.28-2.81-7.04c-0.05-0.33-0.09-0.67-0.11-1.01c-0.18-2.45,0.46-4.99,2.92-6.88c0.91-0.7,3.02-1.29,5.98-1.77
					c0.37-0.07,0.76-0.13,1.17-0.18c4.62-0.67,10.98-1.13,18.02-1.4c0.41-0.01,0.82-0.03,1.23-0.04c3.37-0.12,6.89-0.2,10.43-0.24
					c1.34-0.01,2.68-0.02,4.02-0.02c1.99-0.02,3.97-0.01,5.93,0c0.43,0.01,0.86,0.01,1.28,0.01c6.98,0.08,13.59,0.29,18.96,0.6
					c0.44,0.03,0.87,0.06,1.29,0.09c6.04,0.39,10.28,0.92,11.26,1.56c0.03,0.03,0.06,0.05,0.09,0.07c0.24,0.2,0.45,0.46,0.65,0.76
					C363.893,310.283,363.483,317.672,361.993,321.043z"/>
				<path style="opacity:0.5;fill:#5BA184;" d="M353.543,309.783c2.81-0.84,5.62-1.68,8.43-2.5c-0.2-0.3-0.41-0.56-0.65-0.76
					c-0.03-0.02-0.06-0.04-0.09-0.07c-2.78,0.81-5.55,1.64-8.32,2.48c-0.99-1.34-1.97-2.69-2.94-4.04
					c-0.42-0.03-0.85-0.06-1.29-0.09c1.06,1.48,2.14,2.96,3.22,4.44c-4.82,1.46-9.63,2.96-14.43,4.49
					c-2.65-3.14-5.23-6.31-7.75-9.53c-0.42,0-0.85,0-1.28-0.01c2.59,3.34,5.27,6.62,8,9.87c-5.18,1.66-10.35,3.36-15.5,5.1
					c-3.69-3.76-7.21-7.68-10.53-11.78l12.1-3.19c-1.34,0-2.68,0.01-4.02,0.02l-8.78,2.33c-0.55-0.69-1.1-1.39-1.65-2.09
					c-0.41,0.01-0.82,0.03-1.23,0.04c0.6,0.78,1.21,1.56,1.82,2.33l-15.49,4.09c-1.47-1.66-2.92-3.33-4.35-5.02
					c-0.41,0.05-0.8,0.11-1.17,0.18c1.46,1.73,2.94,3.44,4.43,5.13l-13.33,3.52c0.02,0.34,0.06,0.68,0.11,1.01l13.97-3.69
					c3.26,3.66,6.62,7.24,10.08,10.73h1.41c-3.58-3.58-7.05-7.26-10.41-11.02l15.44-4.08c3.33,4.12,6.86,8.06,10.56,11.85
					c-3.14,1.07-6.27,2.15-9.4,3.25h3c2.39-0.83,4.78-1.65,7.17-2.46c0.82,0.83,1.65,1.65,2.49,2.46h1.43
					c-0.97-0.92-1.93-1.87-2.88-2.82c5.13-1.73,10.27-3.42,15.43-5.07c2.26,2.67,4.56,5.3,6.89,7.89h1.36
					c-2.45-2.7-4.85-5.44-7.21-8.21c4.77-1.53,9.55-3.01,14.35-4.47c2.94,4,5.91,7.98,8.92,11.91c0.19-0.26,0.37-0.59,0.54-0.96
					C359.143,317.323,356.323,313.563,353.543,309.783z"/>
				<g>
					<g>
						<path style="fill:#356B55;" d="M353.063,314.571c-6.223,0.206-12.445,0.303-18.668,0.383
							c-6.223,0.082-12.445,0.075-18.668,0.117c-6.223-0.039-12.445-0.035-18.668-0.115l-4.667-0.069l-2.333-0.034
							c-0.761-0.039-1.469,0.104-2.119,0.459c-1.299,0.68-2.136,2.205-1.9,3.708c0.222,1.502,1.092,2.919,2.373,3.805
							c-1.342-0.794-2.334-2.192-2.635-3.76c-0.334-1.597,0.488-3.339,1.918-4.178c0.701-0.431,1.568-0.617,2.363-0.597l2.333-0.034
							l4.667-0.069c6.223-0.08,12.445-0.076,18.668-0.115c6.223,0.042,12.445,0.034,18.668,0.117
							C340.618,314.268,346.841,314.364,353.063,314.571z"/>
					</g>
				</g>
			</g>
		</g>
	</g>
	<g>
		<path style="fill:#FFF6ED;" d="M103.407,126.92L103.407,126.92c0-5.877-4.764-10.641-10.641-10.641l0,0
			c5.877,0,10.641-4.764,10.641-10.641l0,0c0,5.877,4.764,10.641,10.641,10.641l0,0C108.171,116.279,103.407,121.043,103.407,126.92
			z"/>
		<path style="fill:#FFF6ED;" d="M117.553,106.877L117.553,106.877c0-3.832-3.106-6.938-6.938-6.938l0,0
			c3.832,0,6.938-3.106,6.938-6.938l0,0c0,3.832,3.106,6.938,6.938,6.938l0,0C120.66,99.939,117.553,103.045,117.553,106.877z"/>
		<path style="fill:#FFF6ED;" d="M305.598,81.588L305.598,81.588c0-6.853-5.556-12.409-12.409-12.409l0,0
			c6.853,0,12.409-5.556,12.409-12.409h0c0,6.853,5.556,12.409,12.409,12.409l0,0C311.154,69.179,305.598,74.735,305.598,81.588z"/>
		<path style="fill:#FFF6ED;" d="M67.2,199.833L67.2,199.833c0-7.636-6.19-13.827-13.826-13.827l0,0
			c7.636,0,13.826-6.19,13.826-13.826h0c0,7.636,6.19,13.826,13.826,13.826l0,0C73.391,186.007,67.2,192.197,67.2,199.833z"/>
		<path style="fill:#FFF6ED;" d="M701.469,196.608L701.469,196.608c0-3.832-3.106-6.938-6.938-6.938l0,0
			c3.832,0,6.938-3.106,6.938-6.938l0,0c0,3.832,3.106,6.938,6.938,6.938l0,0C704.575,189.67,701.469,192.776,701.469,196.608z"/>
		<path style="fill:#FFF6ED;" d="M708.407,186.117L708.407,186.117c0-6.121-4.962-11.083-11.082-11.083l0,0
			c6.121,0,11.082-4.962,11.082-11.082l0,0c0,6.121,4.962,11.082,11.083,11.082l0,0
			C713.369,175.035,708.407,179.997,708.407,186.117z"/>
		<path style="fill:#FFF6ED;" d="M412.511,129.927L412.511,129.927c0-6.121-4.962-11.082-11.082-11.082l0,0
			c6.121,0,11.082-4.962,11.082-11.082l0,0c0,6.121,4.962,11.082,11.082,11.082l0,0
			C417.473,118.844,412.511,123.806,412.511,129.927z"/>
	</g>
</g>
</svg>
